<?xml version="1.0" standalone="no"?>
<!DOCTYPE svg PUBLIC "-//W3C//DTD SVG 20010904//EN"
 "http://www.w3.org/TR/2001/REC-SVG-20010904/DTD/svg10.dtd">
<svg version="1.0" xmlns="http://www.w3.org/2000/svg"
 width="500.000000pt" height="500.000000pt" viewBox="0 0 500.000000 500.000000"
 preserveAspectRatio="xMidYMid meet">

<g transform="translate(0.000000,500.000000) scale(0.100000,-0.100000)"
fill="#000000" stroke="none">
<path d="M2652 3724 c-27 -18 -29 -55 -4 -77 38 -34 95 -11 95 38 0 49 -48 69
-91 39z m48 -15 c14 -25 9 -61 -7 -67 -16 -5 -35 44 -28 69 8 25 22 24 35 -2z"/>
<path d="M2768 3735 c-8 -9 3 -55 12 -50 5 3 11 -9 15 -26 l7 -31 24 23 c26
24 30 20 14 -12 -9 -16 -7 -19 15 -19 22 0 25 4 25 34 0 19 3 41 6 49 3 9 -3
16 -16 20 -14 4 -23 0 -27 -11 -14 -45 -16 -47 -24 -18 -10 35 -36 56 -51 41z"/>
<path d="M2525 3710 c-41 -45 18 -110 70 -76 14 9 25 21 25 26 0 6 -10 4 -23
-4 -28 -19 -47 -8 -50 29 -2 33 22 47 30 16 7 -26 33 -28 33 -2 0 35 -57 42
-85 11z"/>
<path d="M2910 3695 c0 -13 -5 -36 -10 -51 -12 -30 -11 -32 16 -37 10 -2 38
-9 61 -17 37 -11 45 -11 68 4 36 24 33 61 -7 86 -48 29 -63 26 -74 -17 -5 -20
-15 -39 -23 -41 -11 -4 -12 1 -7 19 18 66 18 66 -3 72 -17 4 -21 0 -21 -18z
m124 -31 c7 -19 -13 -66 -31 -72 -16 -5 -17 41 -3 69 13 23 26 24 34 3z"/>
<path d="M2757 3650 c-3 -12 0 -20 8 -20 8 0 11 8 8 20 -3 11 -7 20 -8 20 -1
0 -5 -9 -8 -20z"/>
<path d="M3120 3616 c-13 -14 -31 -28 -42 -32 -24 -7 -23 -20 2 -27 15 -4 20
0 20 14 0 35 36 17 41 -21 2 -14 12 -26 22 -28 16 -3 18 3 15 55 -3 67 -20 78
-58 39z m16 -23 c-10 -10 -19 5 -10 18 6 11 8 11 12 0 2 -7 1 -15 -2 -18z"/>
<path d="M3261 3557 c-5 -13 -17 -32 -27 -42 -17 -17 -17 -18 2 -32 17 -12 19
-12 22 1 2 9 8 16 14 16 6 0 8 -9 5 -20 -3 -14 5 -27 28 -45 39 -29 45 -30 45
-10 0 8 4 15 9 15 16 0 30 -26 25 -46 -7 -27 61 -81 81 -64 10 9 19 9 35 0 16
-9 25 -8 36 1 20 17 18 32 -11 63 l-25 27 -37 -38 c-35 -36 -37 -37 -41 -15
-2 12 2 38 8 57 6 19 9 39 5 45 -9 14 -35 12 -30 -2 7 -18 -11 -42 -24 -33 -9
5 -9 11 1 22 11 14 9 14 -19 0 -18 -10 -37 -17 -43 -17 -16 0 -12 50 5 56 23
9 18 40 -11 63 -34 27 -42 26 -53 -2z m53 -30 c-3 -9 -12 -17 -20 -17 -17 0
-17 5 -3 32 13 24 33 10 23 -15z m216 -156 c0 -12 -29 -35 -36 -28 -11 10 5
37 21 37 8 0 15 -4 15 -9z"/>
<path d="M2245 3525 c-33 -7 -103 -26 -155 -43 -364 -119 -422 -145 -522 -234
-56 -50 -71 -70 -99 -136 -38 -91 -44 -182 -15 -226 23 -36 14 -46 -43 -46
-41 0 -51 -4 -65 -25 -9 -13 -16 -37 -16 -52 1 -26 2 -25 15 10 7 21 16 41 19
45 10 10 127 9 184 -1 52 -10 52 -10 35 -31 -16 -18 -15 -18 8 2 17 14 38 22
63 22 33 0 37 -3 35 -22 -2 -15 10 -37 33 -61 36 -38 36 -39 62 -22 16 10 26
13 26 6 0 -6 -4 -11 -10 -11 -5 0 -9 -10 -7 -22 2 -20 -3 -23 -37 -26 -22 -2
-42 2 -46 8 -5 8 -11 0 -18 -19 -7 -21 -18 -31 -31 -31 -10 0 -26 -3 -34 -6
-9 -3 -22 8 -35 30 -25 42 -51 46 -100 16 -42 -26 -62 -26 -31 -1 22 18 22 20
7 26 -10 4 -18 13 -18 21 0 8 -4 14 -10 14 -5 0 -10 -4 -10 -10 0 -5 -7 -10
-16 -10 -10 0 -14 7 -12 23 2 16 -3 23 -17 24 -28 4 -62 -24 -48 -38 8 -8 13
-8 17 0 10 16 36 13 36 -4 0 -9 9 -15 24 -15 31 0 42 -16 25 -36 -24 -30 5
-35 53 -9 62 33 72 32 53 -5 -19 -37 -19 -116 0 -153 14 -27 14 -28 -8 -20
-12 4 -65 8 -117 8 l-95 0 -3 -130 c-2 -121 -4 -131 -25 -147 l-22 -18 22 -17
c21 -17 23 -27 25 -148 l3 -130 101 -3 c90 -2 103 0 135 20 61 41 85 128 60
216 -6 18 -6 30 -1 27 4 -3 6 4 3 15 -3 11 0 26 6 34 7 8 14 38 17 67 4 46 3
50 -7 29 -33 -75 -39 -94 -33 -114 6 -20 5 -20 -12 -3 -18 17 -18 19 -1 49 27
47 32 116 13 162 -20 49 -20 49 5 35 12 -6 36 -13 53 -16 51 -7 56 -11 56 -47
l0 -34 -41 9 c-23 6 -44 7 -47 5 -6 -7 44 -26 69 -26 10 0 19 -5 19 -10 0 -6
-12 -8 -27 -5 l-28 5 30 -15 30 -16 -27 4 c-19 3 -28 0 -28 -9 0 -9 11 -14 31
-14 17 0 28 -4 24 -10 -3 -5 -17 -10 -29 -10 -15 0 -26 -7 -29 -20 -3 -11 0
-20 6 -20 6 0 1 -10 -10 -22 -16 -19 -20 -40 -22 -108 -2 -47 -9 -96 -16 -110
-33 -64 -94 -89 -215 -90 -48 0 -61 -3 -53 -11 7 -7 47 -12 103 -11 83 0 96 3
131 28 21 15 39 32 39 39 0 7 7 18 15 25 11 9 15 32 15 82 0 44 4 67 10 63 6
-3 10 -19 10 -34 0 -60 12 -93 39 -105 14 -6 48 -24 74 -40 40 -24 56 -28 94
-23 93 10 133 68 133 191 0 63 3 81 18 92 20 16 32 18 32 5 0 -5 -9 -13 -20
-16 -18 -6 -20 -15 -20 -91 0 -91 -10 -122 -54 -163 -19 -18 -41 -26 -81 -29
-35 -3 -60 -10 -68 -21 -14 -18 -60 -25 -54 -7 2 6 14 11 26 10 11 0 21 3 21
8 0 22 -143 57 -155 38 -4 -6 8 -10 29 -10 19 0 38 -5 42 -12 4 -6 3 -8 -3 -5
-6 4 -16 0 -23 -8 -6 -7 -18 -11 -26 -8 -10 4 -12 0 -8 -10 6 -17 34 -12 35 7
0 6 4 1 9 -11 6 -15 15 -20 29 -16 12 3 21 1 21 -3 0 -5 11 -10 25 -11 14 -1
36 -3 50 -4 32 -2 44 9 25 21 -8 6 -10 10 -5 11 42 6 54 9 82 17 17 6 34 8 36
6 3 -3 20 16 38 43 30 43 34 57 37 129 4 81 4 81 38 97 24 12 35 13 40 5 5 -7
3 -8 -6 -3 -9 5 -11 4 -6 -3 9 -15 11 -15 27 5 12 14 12 16 0 8 -10 -5 -12 -4
-7 3 12 21 34 13 34 -12 0 -18 -6 -23 -25 -23 -38 0 -64 -36 -63 -86 1 -23 0
-51 -2 -62 -3 -17 3 -20 40 -23 35 -3 45 -8 52 -28 9 -22 15 -25 52 -22 l43 3
5 105 c5 95 7 105 24 105 11 0 21 -5 23 -12 3 -7 -3 -9 -16 -6 -20 5 -21 1
-21 -100 0 -111 -3 -117 -51 -117 -11 0 -18 -4 -14 -9 15 -25 -141 -25 -171 0
-15 12 -54 -17 -54 -41 0 -10 3 -11 8 -3 5 8 36 10 98 8 67 -3 108 1 150 14
l59 17 3 107 c2 66 6 105 12 102 6 -3 10 -22 10 -41 0 -20 5 -44 10 -54 7 -13
7 -21 0 -25 -5 -3 -10 -14 -10 -24 0 -20 35 -31 101 -31 48 0 49 5 12 144
l-27 102 24 48 c20 43 22 57 17 139 -4 58 -3 86 3 77 18 -28 12 -187 -8 -228
-20 -41 -21 -36 15 -180 14 -56 23 -106 19 -109 -4 -4 -38 -12 -77 -17 -38 -6
-70 -15 -69 -21 0 -5 8 -10 18 -10 9 0 16 -6 14 -12 -3 -17 10 -17 27 -1 8 7
11 8 8 2 -3 -6 0 -11 7 -11 8 0 12 6 9 12 -3 8 12 14 42 18 26 2 51 9 56 14 6
6 -2 56 -22 137 l-32 126 18 56 c12 38 16 77 13 124 -3 67 -3 69 15 50 10 -11
29 -20 42 -20 13 0 27 -5 31 -12 5 -7 3 -8 -7 -3 -12 7 -12 6 -1 -7 7 -9 12
-34 10 -55 -2 -31 -9 -41 -35 -54 l-31 -16 34 -12 c40 -14 49 -47 10 -37 -13
3 -30 8 -38 11 -9 3 -20 -4 -27 -19 -12 -21 -11 -35 3 -93 39 -155 32 -142 74
-136 20 3 42 9 47 14 6 4 21 1 35 -6 14 -8 49 -14 79 -15 49 0 57 3 92 39 l39
39 0 130 0 130 -45 11 c-64 16 -85 3 -85 -51 0 -27 6 -45 18 -54 11 -9 13 -16
6 -21 -5 -5 -11 -30 -12 -56 -2 -51 -7 -67 -23 -67 -11 0 -8 318 4 358 5 18 3
23 -11 20 -13 -3 -19 -20 -25 -83 -8 -77 -2 -236 9 -273 5 -14 3 -14 -10 2
-13 16 -16 49 -16 181 0 144 2 164 18 178 10 10 26 17 36 17 22 0 44 -46 29
-61 -21 -21 17 -49 64 -49 l43 0 0 56 c0 30 -5 64 -10 75 -10 18 -7 19 61 19
61 0 70 -2 65 -16 -3 -9 -6 -29 -6 -45 0 -24 -4 -29 -25 -29 -37 0 -29 -34 10
-41 15 -3 21 -13 23 -40 3 -32 -1 -39 -31 -58 -19 -12 -42 -18 -51 -15 -14 5
-16 -7 -16 -103 0 -98 -3 -114 -22 -143 -29 -41 -82 -70 -129 -70 -20 0 -50
-7 -65 -15 -16 -8 -51 -15 -79 -16 -43 0 -46 -2 -26 -10 18 -7 43 -5 86 6 34
8 74 15 91 15 36 0 116 23 114 33 -1 5 10 22 24 38 24 28 26 38 26 135 0 86 3
104 15 104 11 0 15 -12 16 -42 1 -24 3 -34 6 -23 2 11 7 27 10 35 3 8 5 18 5
23 -3 11 16 8 23 -4 8 -12 -3 -64 -12 -55 -12 12 -33 -48 -33 -95 0 -46 2 -49
26 -49 21 0 25 -4 22 -22 -2 -16 -13 -25 -40 -33 -21 -6 -46 -19 -55 -30 -17
-18 -17 -18 0 -6 9 8 17 11 17 7 0 -3 12 0 28 6 15 7 90 14 167 18 l140 5 3
38 3 37 47 0 47 -1 -23 -19 c-13 -10 -30 -16 -37 -13 -10 3 -15 -2 -15 -15 0
-35 -29 -55 -69 -48 -50 8 -175 -4 -163 -16 5 -5 59 -9 118 -9 114 1 134 9
134 52 0 9 8 19 18 22 9 2 25 8 34 12 12 5 17 1 20 -17 3 -20 9 -23 48 -23
l45 0 3 103 c2 82 6 104 18 109 25 9 41 -17 59 -102 24 -110 27 -115 80 -115
24 0 46 4 49 9 3 4 -8 59 -25 122 l-30 113 20 42 c26 50 29 185 7 239 -18 42
-92 82 -179 96 -34 6 -64 12 -66 15 -8 8 20 22 57 29 19 4 46 14 59 22 21 14
24 22 21 67 -3 50 -4 52 -53 78 -27 15 -58 28 -67 28 -57 1 34 71 100 77 42 4
50 2 76 -26 29 -30 56 -41 56 -22 0 5 -7 14 -15 21 -17 14 -20 56 -5 65 6 3
10 15 10 26 0 23 -27 25 -58 3 -21 -14 -22 -14 -22 5 0 12 6 21 14 21 22 0 26
27 7 44 -10 9 -28 16 -40 16 -19 0 -22 4 -18 22 9 33 -14 76 -95 173 -111 135
-202 206 -344 271 -194 90 -636 142 -839 99z m520 -25 c137 -19 243 -53 294
-93 7 -6 19 -12 26 -13 22 -3 105 -55 105 -66 0 -5 5 -6 12 -2 8 5 9 2 4 -11
-5 -14 -4 -16 7 -6 11 8 20 5 41 -14 15 -14 32 -25 39 -25 8 0 8 -3 -1 -9 -11
-6 -10 -10 5 -16 10 -5 23 -7 30 -6 15 2 76 -86 68 -98 -3 -5 0 -13 6 -17 7
-4 9 -3 5 4 -3 6 -2 13 3 16 5 4 12 2 15 -3 4 -5 2 -12 -4 -16 -15 -9 -12 -28
3 -19 6 4 8 3 4 -1 -12 -13 -36 -15 -44 -3 -4 7 -1 8 8 3 8 -5 10 -4 6 0 -8
10 -37 16 -37 9 0 -3 7 -16 16 -29 9 -13 12 -30 8 -36 -5 -8 -3 -9 7 -3 23 14
37 13 43 -3 3 -8 1 -11 -5 -8 -6 4 -8 -3 -4 -22 5 -19 4 -24 -3 -14 -5 7 -14
11 -20 7 -6 -3 -15 2 -21 11 -12 20 -14 13 -5 -11 3 -9 12 -16 20 -16 8 0 14
-5 14 -11 0 -5 -4 -7 -10 -4 -5 3 -10 2 -10 -4 0 -12 -65 -43 -130 -62 -41
-12 -43 -13 -17 -17 16 -2 42 1 58 7 16 5 29 6 29 2 0 -13 -41 -25 -100 -31
-38 -3 -43 -1 -31 14 9 11 6 13 -19 11 -25 -2 -30 1 -30 21 0 32 -11 35 -39
13 -17 -14 -22 -25 -17 -44 6 -24 5 -24 -49 -24 -34 1 -55 5 -55 13 0 8 -2 8
-8 -1 -4 -7 -16 -10 -27 -8 -11 2 -26 4 -32 4 -7 1 -13 5 -13 9 0 5 18 9 41
10 22 1 45 4 50 8 5 3 9 -1 10 -8 0 -10 2 -10 6 0 2 6 13 12 23 12 10 0 22 5
25 10 3 6 -1 10 -9 10 -9 0 -16 6 -16 13 0 8 -3 9 -8 1 -4 -6 -29 -10 -57 -10
-52 1 -80 -14 -80 -43 0 -12 -10 -16 -43 -16 -23 0 -42 -3 -42 -6 0 -11 -90
-15 -91 -4 0 5 -3 4 -6 -2 -6 -16 -43 -17 -43 -2 0 6 5 20 11 31 7 13 7 18 1
14 -6 -4 -15 1 -20 10 -12 21 -42 11 -42 -13 1 -17 1 -17 14 -1 15 21 26 13
26 -18 0 -31 -15 -38 -36 -17 -16 16 -16 16 -9 -6 5 -16 3 -22 -7 -20 -30 4
-111 -1 -105 -7 3 -3 31 -7 63 -8 36 -1 59 -6 62 -14 3 -11 -28 -18 -68 -14
-8 1 -44 2 -80 3 -38 0 -68 5 -72 12 -5 9 -8 8 -8 -3 0 -13 -1 -13 -10 0 -8
13 -10 12 -10 -2 0 -22 -14 -23 -34 -2 -22 21 -20 30 7 31 12 0 36 1 52 2 26
2 27 4 10 10 -11 5 -23 7 -27 4 -17 -9 -7 22 14 44 15 16 17 22 7 18 -9 -3
-22 -17 -29 -31 -7 -13 -20 -24 -29 -23 -11 0 -12 2 -3 6 6 2 12 9 12 14 0 6
-4 7 -10 4 -6 -3 -10 4 -11 17 0 22 -1 22 -9 3 -5 -11 -9 -15 -9 -10 -1 6 -6
3 -11 -5 -8 -12 -10 -12 -10 -1 0 11 -5 10 -21 -5 -17 -16 -22 -16 -29 -4 -6
9 -10 10 -10 3 0 -8 -9 -9 -29 -3 -16 4 -32 6 -35 2 -3 -3 -6 6 -6 19 0 18 -2
21 -9 9 -6 -8 -8 -17 -6 -20 2 -4 -2 -7 -10 -7 -8 0 -15 7 -15 14 0 8 -5 11
-12 7 -7 -5 -9 -2 -6 8 4 8 2 21 -3 29 -6 10 -9 7 -9 -13 0 -20 -5 -28 -17
-27 -11 0 -13 3 -5 6 6 2 12 12 12 21 0 15 -2 15 -10 2 -8 -12 -10 -10 -11 10
0 16 -3 19 -6 10 -11 -30 -45 -70 -54 -65 -5 4 -16 2 -25 -3 -14 -8 -12 -10
12 -16 26 -7 104 -16 167 -19 15 -1 27 -5 27 -9 0 -4 7 -5 15 -2 10 4 13 2 10
-8 -6 -15 -12 -15 -200 8 -81 10 -126 20 -139 32 -16 13 -18 14 -8 1 30 -40
-38 -38 -138 4 -29 12 -45 16 -80 21 -41 5 -78 24 -89 45 -7 13 -7 21 -1 23 6
2 1 9 -11 16 -12 8 -18 9 -15 3 4 -5 2 -12 -4 -16 -5 -3 -10 -11 -10 -16 0 -6
4 -8 9 -4 5 3 12 1 15 -3 3 -5 -6 -9 -21 -8 -31 1 -49 26 -38 52 10 25 13 39
20 99 5 42 12 57 50 94 34 34 43 40 38 23 -3 -12 -10 -19 -16 -15 -6 3 -7 1
-3 -5 8 -13 -17 -56 -26 -47 -3 3 -3 -6 -1 -20 5 -22 9 -18 34 35 15 33 31 60
35 60 3 0 3 -7 0 -16 -5 -12 0 -11 22 5 16 11 35 27 42 35 7 9 16 14 20 11 4
-2 22 12 41 32 19 20 28 33 22 29 -9 -5 -13 0 -13 13 0 13 12 26 30 36 17 9
30 13 30 9 0 -4 6 -2 13 4 18 15 135 51 142 44 3 -3 11 1 18 10 15 19 102 52
143 54 16 1 46 10 65 19 18 10 48 22 64 26 41 11 411 3 510 -11z m-1029 -195
c-1 -8 -8 -21 -15 -28 -7 -6 -12 -7 -11 -2 5 24 -1 27 -21 9 -16 -14 -21 -15
-17 -4 4 14 43 39 60 40 3 0 5 -7 4 -15z m-96 -49 c0 -2 -7 -7 -16 -10 -8 -3
-12 -2 -9 4 6 10 25 14 25 6z m25 -26 c-10 -11 -21 -17 -24 -14 -3 3 3 12 13
20 28 20 32 17 11 -6z m1815 -159 c6 -11 2 -25 -10 -41 l-19 -25 1 35 c1 19
-2 44 -7 55 -8 18 -7 19 9 6 9 -8 21 -22 26 -30z m13 -98 c-27 -48 -86 -90
-138 -97 l-40 -5 33 15 c20 9 30 19 26 26 -4 7 -3 8 4 4 22 -13 72 24 94 69
15 30 25 42 32 35 7 -7 3 -23 -11 -47z m-355 -68 c-4 -32 -2 -34 19 -29 14 4
23 2 23 -5 0 -18 -45 -13 -63 7 -15 16 -15 20 -1 40 21 31 27 28 22 -13z m439
19 c2 -5 -18 -19 -44 -30 -44 -18 -46 -20 -29 -37 19 -18 13 -20 -19 -8 -12 5
-25 3 -33 -6 -10 -10 -18 -10 -35 -1 -21 11 -20 12 18 28 22 10 51 30 65 44
24 27 70 33 77 10z m-2043 -82 c-6 -8 -62 29 -68 43 -12 32 -5 31 33 -4 21
-20 37 -37 35 -39z m2016 33 c0 -8 -4 -15 -9 -15 -13 0 -22 16 -14 24 11 11
23 6 23 -9z m71 -18 c-6 -6 -11 -21 -11 -34 0 -28 -1 -28 -42 -3 -18 11 -27
20 -20 20 8 0 25 9 39 20 26 20 55 18 34 -3z m-1321 -22 c5 3 14 -4 20 -15 9
-17 8 -20 -10 -20 -11 0 -20 6 -20 13 0 9 -2 9 -9 -1 -6 -11 -9 -9 -14 7 -5
19 14 37 21 19 2 -4 8 -6 12 -3z m1005 -22 l40 -36 -52 6 c-40 5 -56 2 -68 -9
-21 -21 -19 -57 5 -79 11 -10 20 -24 20 -30 0 -15 -27 -28 -35 -16 -7 12 -55
20 -55 10 0 -5 5 -9 10 -9 6 0 10 -4 10 -10 0 -5 -6 -10 -13 -10 -7 0 -27 27
-44 60 -20 40 -26 60 -17 60 7 0 26 11 42 25 17 14 34 25 39 25 5 0 20 11 33
25 13 14 28 25 34 25 6 -1 29 -17 51 -37z m62 23 c-3 -8 1 -20 9 -26 16 -14
19 -30 5 -30 -16 0 -71 51 -65 61 3 5 17 9 31 9 18 0 24 -4 20 -14z m-1131
-33 c-10 -10 -19 5 -10 18 6 11 8 11 12 0 2 -7 1 -15 -2 -18z m1169 17 c-3 -5
-11 -10 -16 -10 -6 0 -7 5 -4 10 3 6 11 10 16 10 6 0 7 -4 4 -10z m-551 -9
c-3 -3 -22 -7 -42 -7 -20 -1 -49 -4 -64 -7 -25 -5 -36 2 -24 14 3 2 34 5 70 5
36 0 63 -2 60 -5z m106 5 c0 -2 -16 -6 -35 -8 -19 -2 -35 0 -35 4 0 4 16 8 35
8 19 0 35 -2 35 -4z m490 -5 c0 -10 -30 -24 -37 -17 -3 3 -2 9 2 15 8 13 35
15 35 2z m-1445 -11 c28 -6 11 -7 -55 -3 -52 3 -97 7 -99 9 -8 8 115 3 154 -6z
m92 -9 c3 -12 11 -17 23 -14 13 3 20 -4 29 -28 15 -44 15 -43 -23 -20 -46 29
-97 27 -134 -4 -40 -33 -48 -32 -22 5 12 17 36 37 55 44 18 8 36 19 39 25 11
17 27 13 33 -8z m603 11 c0 -5 -13 -8 -30 -8 -16 0 -30 3 -30 8 0 4 14 8 30 8
17 0 30 -4 30 -8z m-954 -27 c-6 -17 -26 -12 -26 6 0 6 5 7 10 4 6 -3 10 -1
10 6 0 7 3 10 6 6 4 -3 4 -13 0 -22z m109 5 c21 -9 18 -10 -27 -14 -27 -2 -35
4 -21 17 8 9 23 8 48 -3z m1270 1 c3 -5 0 -13 -6 -17 -7 -4 -9 -3 -5 4 3 5 0
13 -6 15 -9 4 -10 6 -1 6 6 1 14 -3 18 -8z m-39 -8 c-10 -11 -37 -12 -30 -2 3
5 12 9 21 9 9 0 13 -3 9 -7z m-1299 -25 c-3 -8 -6 -5 -6 6 -1 11 2 17 5 13 3
-3 4 -12 1 -19z m1175 -4 c13 -16 28 -24 42 -22 14 2 25 -5 34 -21 18 -35 15
-50 -13 -57 -35 -9 -55 2 -55 29 0 30 -10 40 -26 26 -10 -8 -17 -3 -29 20 -14
27 -18 30 -36 20 -15 -8 -24 -8 -32 0 -12 12 1 18 53 24 19 2 37 5 39 5 2 1
12 -9 23 -24z m28 11 c0 -8 -4 -15 -10 -15 -5 0 -10 7 -10 15 0 8 5 15 10 15
6 0 10 -7 10 -15z m40 5 c-8 -5 -19 -10 -25 -10 -5 0 -3 5 5 10 8 5 20 10 25
10 6 0 3 -5 -5 -10z m346 -3 c4 -4 3 -12 -4 -19 -13 -13 -132 9 -132 25 0 11
125 5 136 -6z m-1541 -27 c-6 -9 -9 -9 -16 1 -10 17 0 34 13 21 6 -6 7 -16 3
-22z m115 10 c-13 -8 -20 -59 -9 -65 19 -12 8 -25 -21 -25 -33 0 -39 14 -12
29 9 6 12 11 6 11 -6 0 -17 -7 -24 -15 -18 -21 3 -44 35 -37 27 5 32 -7 13
-27 -11 -10 -10 -11 5 -6 9 4 17 3 17 -3 0 -11 -24 -22 -48 -22 -13 0 -14 2
-4 9 10 6 5 12 -18 21 -26 11 -33 11 -40 0 -11 -18 -27 -5 -33 26 -3 18 3 33
19 51 13 14 24 34 24 44 0 16 8 18 50 16 27 -1 45 -4 40 -7z m248 -2 c7 -7 12
-23 12 -37 0 -19 -3 -22 -9 -12 -5 7 -13 11 -18 8 -5 -3 -10 8 -11 24 -2 31 6
37 26 17z m359 -4 c-3 -4 -18 -6 -32 -6 -17 0 -25 -6 -25 -18 0 -13 -10 -19
-33 -22 -26 -3 -37 2 -56 25 l-23 28 75 -3 c42 -1 79 1 83 5 4 4 10 5 12 2 3
-3 3 -8 -1 -11z m124 7 c3 -1 13 -19 22 -41 17 -45 33 -49 71 -19 34 27 34 9
0 -25 -34 -33 -67 -33 -93 0 -12 15 -21 22 -21 16 0 -6 5 -14 10 -17 6 -3 10
-11 10 -17 0 -7 -12 0 -27 14 -44 40 -76 43 -134 12 -27 -15 -47 -29 -44 -32
2 -3 12 1 21 9 14 12 16 11 13 -5 -5 -25 -32 -41 -54 -32 -14 5 -15 9 -5 21 9
10 9 15 1 15 -6 0 -11 6 -11 14 0 8 15 16 35 19 19 3 48 15 64 26 33 24 52 26
69 9 13 -13 54 -19 46 -6 -3 4 -14 8 -25 8 -10 0 -19 5 -19 10 0 6 -8 10 -17
10 -12 0 -14 3 -6 8 9 6 68 8 94 3z m177 -21 c10 0 23 5 29 11 7 7 12 1 17
-22 5 -27 9 -31 31 -27 21 5 23 3 14 -14 -6 -11 -8 -22 -5 -26 3 -3 6 0 6 7 0
9 4 8 15 -3 21 -21 19 -26 -12 -26 -21 0 -32 8 -44 33 -10 20 -24 33 -40 35
-33 5 -49 20 -49 46 1 19 2 19 11 4 5 -10 18 -18 27 -18z m-798 13 c0 -5 3
-17 6 -29 5 -18 -1 -23 -40 -34 -26 -7 -49 -16 -51 -21 -9 -14 57 0 97 21 46
24 71 25 87 6 7 -8 26 -18 44 -22 26 -5 35 -2 54 21 13 15 25 26 27 24 2 -2 6
-21 10 -41 l7 -38 -33 5 c-25 4 -23 2 10 -8 42 -12 66 -33 56 -49 -3 -4 0 -8
7 -8 7 0 10 -3 6 -6 -3 -4 -18 3 -33 15 -24 19 -36 21 -111 16 -67 -4 -90 -2
-116 12 -18 9 -39 16 -47 14 -21 -4 -60 -47 -60 -66 0 -8 -4 -15 -10 -15 -15
0 -12 37 5 70 9 17 11 30 6 30 -5 0 -11 -6 -13 -12 -3 -7 -5 4 -6 24 -1 29 5
44 29 68 28 27 69 41 69 23z m672 -33 c4 0 8 10 8 23 0 18 2 19 10 7 6 -10 10
-11 10 -2 0 6 5 12 11 12 6 0 9 -8 7 -17 -2 -10 -10 -18 -18 -18 -9 0 -14 -8
-12 -18 4 -22 -24 -22 -31 1 -2 9 -8 26 -11 37 -5 15 -4 15 5 -2 7 -13 16 -23
21 -23z m374 5 c24 -59 19 -70 -20 -40 -32 24 -50 57 -38 69 16 17 44 3 58
-29z m-875 2 c-10 -9 -11 -8 -5 6 3 10 9 15 12 12 3 -3 0 -11 -7 -18z m160 -5
c27 -24 31 -35 31 -75 -1 -37 3 -49 18 -57 23 -12 27 -40 5 -40 -8 0 -23 17
-34 38 -11 20 -34 50 -52 67 l-32 30 7 -29 c7 -27 6 -28 -9 -16 -9 8 -14 22
-12 32 3 10 1 18 -4 18 -5 0 -9 11 -9 24 0 13 -6 27 -12 29 -7 3 6 6 29 6 33
1 50 -5 74 -27z m964 -31 c3 -5 1 -12 -5 -16 -5 -3 -10 1 -10 9 0 18 6 21 15
7z m55 -1 c0 -5 -4 -10 -10 -10 -5 0 -10 5 -10 10 0 6 5 10 10 10 6 0 10 -4
10 -10z m99 1 c18 -12 5 -31 -22 -31 -16 0 -19 3 -8 9 7 5 10 14 7 20 -8 13 3
14 23 2z m-918 -30 c-9 -17 -8 -22 10 -32 22 -11 38 0 39 26 0 5 5 4 12 -3 7
-7 20 -12 30 -12 11 0 18 -7 18 -18 0 -10 6 -19 14 -19 8 0 12 6 9 13 -2 7 4
15 15 18 11 4 27 15 36 25 15 16 22 17 67 7 28 -7 55 -19 60 -29 8 -14 22 -17
69 -15 34 2 53 6 47 11 -7 5 6 6 28 3 23 -3 79 -7 125 -10 47 -2 70 -2 53 1
-18 2 -33 8 -33 13 0 11 83 -1 92 -13 8 -13 111 -15 151 -4 21 6 27 5 21 -4
-5 -9 -2 -10 12 -5 10 5 27 11 38 14 17 5 18 4 2 -20 -17 -26 -149 -80 -226
-92 -124 -20 -713 74 -751 120 -9 11 -6 14 19 14 22 0 31 5 35 22 4 12 9 19
12 16 4 -3 2 -15 -4 -27z m834 -1 c-3 -5 -15 -10 -25 -10 -10 0 -22 5 -25 10
-4 6 7 10 25 10 18 0 29 -4 25 -10z m-1847 -17 c-1 -10 1 -24 5 -30 11 -18 -8
-16 -23 2 -13 16 -7 45 10 45 6 0 10 -8 8 -17z m212 -3 c0 -5 -5 -10 -11 -10
-5 0 -7 5 -4 10 3 6 8 10 11 10 2 0 4 -4 4 -10z m-35 -10 c-3 -5 -13 -10 -21
-10 -8 0 -12 5 -9 10 3 6 13 10 21 10 8 0 12 -4 9 -10z m129 -21 c-3 -5 -10
-7 -15 -3 -5 3 -7 10 -3 15 3 5 10 7 15 3 5 -3 7 -10 3 -15z m473 -11 c-3 -7
-5 -2 -5 12 0 14 2 19 5 13 2 -7 2 -19 0 -25z m-277 -28 c13 -24 13 -30 0 -30
-6 0 -16 11 -22 25 -6 14 -18 25 -25 25 -8 0 -11 5 -8 10 8 13 41 -4 55 -30z
m312 22 c-7 -2 -12 -11 -12 -19 0 -9 -3 -14 -6 -10 -10 10 7 48 19 40 8 -5 8
-8 -1 -11z m138 14 c0 -3 -4 -8 -10 -11 -5 -3 -10 -1 -10 4 0 6 5 11 10 11 6
0 10 -2 10 -4z m-910 -26 c25 -4 104 -13 175 -20 72 -7 137 -15 145 -18 8 -3
40 -4 71 -3 44 2 58 -1 62 -13 7 -19 28 -22 25 -4 -2 9 27 13 112 14 114 2
115 2 141 -26 l27 -28 -73 5 c-101 8 -125 0 -125 -37 0 -30 0 -30 -60 -30 -33
0 -60 4 -60 10 0 6 -4 10 -10 10 -6 0 -10 -43 -10 -109 0 -63 4 -112 10 -116
6 -4 10 30 10 94 0 92 8 119 25 91 3 -5 25 -11 48 -11 l42 -1 -38 -8 c-35 -6
-62 -20 -41 -20 5 0 11 -11 12 -26 1 -14 -2 -23 -8 -19 -6 3 -10 -1 -10 -9 0
-12 11 -16 45 -16 l44 0 -1 -36 -1 -36 -44 6 c-41 5 -43 4 -43 -19 l0 -25 -35
18 -35 17 0 128 0 127 -27 11 c-15 6 -35 8 -45 6 -9 -3 -19 0 -22 7 -2 6 -5
-6 -5 -28 l-1 -39 -41 6 -40 5 3 -223 c2 -123 0 -218 -4 -212 -4 7 -8 66 -8
132 0 66 -3 171 -7 232 -5 99 -8 113 -25 119 -29 9 -68 -4 -68 -22 0 -13 -7
-15 -37 -9 -69 13 -103 32 -103 57 0 13 -5 29 -11 35 -7 7 -3 11 15 11 21 0
25 -6 29 -37 4 -35 4 -35 5 7 2 37 0 42 -20 42 -35 0 -68 11 -68 22 0 6 8 7
18 3 9 -3 37 -10 62 -15z m245 10 c3 -5 1 -10 -4 -10 -6 0 -11 5 -11 10 0 6 2
10 4 10 3 0 8 -4 11 -10z m635 0 c0 -5 -4 -10 -10 -10 -5 0 -10 5 -10 10 0 6
5 10 10 10 6 0 10 -4 10 -10z m78 -11 c-7 -5 -22 -9 -32 -9 -19 0 -19 0 -1 14
11 8 25 11 33 8 11 -4 11 -6 0 -13z m-448 -14 c0 -8 -7 -15 -15 -15 -8 0 -15
7 -15 15 0 8 7 15 15 15 8 0 15 -7 15 -15z m228 -30 c-3 -3 -9 2 -12 12 -6 14
-5 15 5 6 7 -7 10 -15 7 -18z m214 18 c-10 -4 -10 -8 0 -21 11 -13 11 -14 -2
-7 -21 13 -41 15 -34 4 3 -5 1 -9 -5 -9 -5 0 -12 6 -14 13 -4 7 -6 6 -6 -5 -1
-9 5 -19 12 -21 9 -4 8 -8 -3 -16 -23 -16 -12 -14 99 24 58 20 109 34 114 32
18 -6 -117 -60 -206 -83 -74 -19 -89 -20 -94 -8 -3 8 -8 12 -12 10 -4 -3 -13
-1 -21 4 -11 7 -8 11 13 21 17 7 26 19 25 28 -3 12 11 19 57 27 67 13 98 16
77 7z m218 -34 c0 -5 -4 -8 -9 -4 -6 3 -14 -3 -20 -12 -5 -10 -13 -14 -17 -10
-4 4 1 14 12 22 23 17 34 19 34 4z m30 -1 c0 -10 3 -9 9 1 13 20 28 6 27 -25
-1 -31 -26 -46 -27 -17 0 10 -3 13 -6 5 -2 -6 -9 -10 -14 -6 -12 7 -12 54 1
54 6 0 10 -6 10 -12z m77 -23 c-3 -33 -21 -33 -25 0 -2 17 1 25 12 25 10 0 14
-9 13 -25z m123 5 c0 -11 -28 -21 -67 -26 -29 -4 -33 -2 -33 18 0 21 4 23 50
20 27 -2 50 -8 50 -12z m329 -6 c-12 -15 -11 -16 7 -10 18 5 20 3 16 -29 -3
-21 -12 -40 -23 -46 -26 -14 -25 -42 1 -34 15 5 20 2 20 -13 0 -13 -11 -23
-32 -30 l-33 -12 33 5 c17 2 32 1 32 -3 0 -13 -133 -33 -172 -26 -37 6 -38 6
-38 -25 0 -18 -5 -31 -13 -31 -9 0 -11 14 -7 53 l5 52 55 3 c92 4 100 8 100
47 0 42 -17 56 -22 18 -3 -27 -4 -28 -83 -33 l-80 -5 0 -67 c0 -36 -3 -64 -7
-62 -13 8 -20 70 -11 105 l9 34 75 5 74 5 3 41 c3 39 5 42 50 56 26 9 49 17
51 17 2 1 -3 -6 -10 -15z m-121 -1 c-16 -2 -40 -2 -55 0 -16 2 -3 4 27 4 30 0
43 -2 28 -4z m240 0 c-10 -2 -28 -2 -40 0 -13 2 -5 4 17 4 22 1 32 -1 23 -4z
m-818 -23 c-8 -5 -22 -10 -30 -10 -13 0 -13 1 0 10 8 5 22 10 30 10 13 0 13
-1 0 -10z m-979 -26 c30 -9 48 -19 41 -21 -16 -6 -110 16 -118 28 -8 13 16 11
77 -7z m240 -44 c17 0 9 -30 -8 -31 -17 -1 -16 -2 0 -6 21 -5 20 -50 -1 -45
-6 1 -12 -5 -12 -13 0 -8 7 -15 15 -15 8 0 15 -4 15 -10 0 -5 -7 -10 -15 -10
-11 0 -15 -12 -15 -50 0 -38 4 -50 15 -50 8 0 15 -4 15 -10 0 -5 -7 -10 -15
-10 -8 0 -15 -5 -15 -10 0 -6 7 -13 15 -16 8 -4 15 -10 15 -15 0 -4 -7 -6 -15
-3 -12 5 -15 -2 -15 -29 0 -19 5 -37 12 -39 7 -3 5 -13 -7 -31 -9 -15 -20 -25
-24 -23 -3 2 -5 99 -3 216 2 186 5 211 18 206 9 -3 20 -6 25 -6z m-419 -27
c38 -34 13 -118 -34 -111 -29 4 -45 59 -29 101 12 31 36 35 63 10z m866 -5 c6
-6 12 -16 12 -23 0 -8 -6 -16 -12 -19 -10 -5 -10 -7 0 -12 6 -3 12 -12 12 -20
0 -8 -6 -14 -12 -14 -10 0 -9 -3 1 -9 34 -22 -22 -73 -64 -57 -20 7 -22 162
-2 169 15 6 47 -2 65 -15z m1183 2 l24 -19 -22 -1 c-13 0 -23 5 -23 10 0 6 -7
10 -15 10 -12 0 -15 -15 -15 -75 0 -43 4 -75 10 -75 6 0 10 27 10 60 0 57 1
60 25 60 14 0 25 -4 25 -10 0 -5 -5 -10 -11 -10 -6 0 -3 -7 6 -16 11 -12 14
-25 10 -43 -10 -40 -25 -52 -59 -49 l-31 3 -3 74 c-2 41 -1 80 2 88 8 19 40
16 67 -7z m-1384 -25 c0 -11 -4 -12 -14 -3 -11 8 -12 7 -7 -6 3 -9 1 -16 -5
-16 -6 0 -11 9 -11 20 0 13 7 20 18 20 10 0 19 -7 19 -15z m1213 -65 c0 -5 -5
-10 -11 -10 -5 0 -7 5 -4 10 3 6 8 10 11 10 2 0 4 -4 4 -10z m-36 -21 c-4 -8
0 -9 15 -4 17 5 21 2 21 -14 0 -25 -14 -34 -40 -26 -21 7 -24 34 -5 47 14 11
17 10 9 -3z m-109 -127 c-3 -4 -30 -9 -58 -12 l-52 -5 0 -63 c0 -54 -2 -60
-13 -45 -16 21 -8 113 11 125 7 4 31 8 53 8 43 0 52 9 56 53 1 12 3 5 5 -17 3
-21 2 -41 -2 -44z m-1549 33 c-8 -8 -18 -15 -22 -15 -3 0 -1 7 6 15 7 8 17 15
22 15 5 0 3 -7 -6 -15z m1675 5 c27 -15 25 -42 -3 -38 -27 4 -38 16 -31 35 6
16 9 16 34 3z m-73 -61 c-5 -47 3 -62 18 -38 4 8 9 7 15 -2 15 -24 11 -26 -48
-32 -32 -3 -65 -7 -73 -8 -9 -3 -14 3 -14 14 1 9 -2 17 -7 17 -5 0 -9 -16 -9
-35 0 -25 -4 -35 -16 -35 -11 0 -14 5 -10 16 3 9 6 31 6 50 0 33 1 34 43 34
53 0 63 7 72 48 10 49 28 27 23 -29z m-1558 37 c0 -20 -13 -27 -30 -15 -12 7
-12 9 3 9 10 0 15 5 12 10 -3 6 -1 10 4 10 6 0 11 -6 11 -14z m-222 -9 c6 -7
9 -27 6 -45 -3 -19 -1 -32 5 -32 18 0 12 -18 -15 -45 -42 -42 -58 -30 -62 44
-2 35 -1 70 2 77 7 18 50 18 64 1z m1872 -48 c0 -6 -4 -7 -10 -4 -5 3 -10 11
-10 16 0 6 5 7 10 4 6 -3 10 -11 10 -16z m-1245 -19 c-10 -11 -20 -18 -23 -15
-7 6 18 35 31 35 5 0 2 -9 -8 -20z m35 -15 c4 3 6 -5 2 -17 -3 -12 -1 -19 5
-15 5 4 8 -6 5 -24 -4 -27 -5 -28 -18 -12 -13 17 -14 17 -8 1 4 -12 1 -18 -9
-18 -25 0 -28 16 -7 35 15 13 17 21 9 26 -7 4 -9 14 -4 25 5 13 9 15 12 6 3
-6 8 -10 13 -7z m-440 -15 c0 -19 -18 -19 -23 -1 -3 14 -1 18 9 14 8 -3 14 -9
14 -13z m1277 -46 c-10 -10 -37 16 -37 34 0 13 4 12 22 -5 12 -13 19 -25 15
-29z m363 22 c0 -15 -24 -28 -34 -19 -10 10 -7 25 4 18 6 -3 10 -1 10 4 0 6 5
11 10 11 6 0 10 -6 10 -14z m-60 -16 c0 -5 -10 -10 -22 -9 -22 0 -22 1 -3 9
11 5 21 9 23 9 1 1 2 -3 2 -9z m-1533 -143 c-5 -16 -35 -17 -41 0 -3 7 -2 11
3 8 5 -3 12 -1 16 5 8 13 27 2 22 -13z m87 -12 c-4 -8 -10 -12 -15 -9 -11 6
-2 24 11 24 5 0 7 -7 4 -15z"/>
<path d="M2430 3471 c0 -6 6 -8 14 -5 8 3 16 -2 20 -13 4 -15 5 -15 3 2 -2 20
-37 35 -37 16z"/>
<path d="M2140 3436 c-8 -6 -20 -20 -26 -31 -10 -17 -8 -20 12 -20 13 0 24 3
24 8 0 4 -5 7 -11 7 -20 0 -3 24 22 30 18 4 20 7 9 12 -9 3 -22 1 -30 -6z"/>
<path d="M2009 3409 l-24 -20 25 13 c14 7 29 11 33 10 5 -1 6 2 2 8 -8 13 -9
13 -36 -11z"/>
<path d="M2181 3409 c-13 -10 -19 -19 -14 -19 13 0 49 27 43 33 -3 3 -16 -3
-29 -14z"/>
<path d="M2080 3409 c0 -5 -5 -7 -12 -3 -7 4 -8 3 -4 -5 6 -9 11 -9 22 0 17
14 18 19 4 19 -5 0 -10 -5 -10 -11z"/>
<path d="M2338 3398 c23 -11 30 -28 11 -28 -6 0 -20 5 -32 11 -21 10 -21 10
-3 -5 22 -17 62 -21 70 -7 7 10 -37 41 -56 40 -7 0 -3 -5 10 -11z"/>
<path d="M2763 3399 c24 -14 21 -31 -5 -27 -13 2 -22 9 -20 16 1 6 -3 12 -9
12 -6 0 -9 -8 -7 -17 3 -19 39 -29 65 -19 14 6 14 9 -2 26 -10 11 -23 20 -29
20 -6 0 -3 -5 7 -11z"/>
<path d="M1925 3381 c-3 -6 -11 -8 -17 -5 -6 4 -8 2 -5 -3 8 -13 -15 -34 -40
-37 -10 -2 -19 -12 -21 -23 -2 -11 -19 -35 -38 -53 -41 -40 -46 -29 -6 14 15
17 18 23 7 14 -11 -9 -23 -17 -28 -17 -17 -1 -57 -34 -57 -48 0 -11 4 -11 21
-3 11 7 23 9 27 6 3 -3 14 1 24 11 22 20 24 6 2 -18 -9 -10 -21 -16 -28 -13
-7 3 -21 -4 -31 -16 -17 -19 -42 -29 -32 -12 3 4 -6 8 -19 8 -19 2 -21 -1 -11
-11 14 -14 11 -85 -4 -85 -12 0 -34 42 -31 60 1 10 0 11 -4 2 -5 -10 -9 -10
-22 0 -14 10 -15 10 -4 -2 15 -18 16 -34 0 -24 -7 4 -8 3 -4 -5 4 -6 10 -10
14 -8 4 2 19 -10 34 -25 19 -20 22 -28 12 -28 -9 0 -23 -8 -32 -17 -16 -16
-17 -15 -20 7 -3 18 -6 20 -13 9 -7 -11 -9 -11 -9 3 0 9 -6 20 -12 24 -7 4
-10 4 -6 -1 4 -4 0 -14 -9 -23 -11 -12 -19 -13 -32 -5 -14 9 -17 8 -16 -8 1
-20 15 -40 15 -22 0 6 7 10 15 9 17 -2 18 -7 8 -32 -3 -8 0 -21 7 -27 10 -10
12 -7 7 11 -3 12 -1 20 3 17 5 -3 11 1 13 7 4 10 6 10 6 1 1 -7 6 -13 12 -13
5 0 8 4 5 8 -5 8 55 42 74 42 16 0 12 -26 -6 -41 -12 -10 -20 -10 -35 -1 -11
7 -19 8 -19 2 0 -19 5 -25 18 -22 8 2 12 -4 10 -14 -2 -9 3 -19 11 -22 9 -3
11 0 6 8 -5 8 -4 11 3 7 5 -4 8 -16 5 -27 -4 -15 -9 -18 -17 -10 -9 6 -16 6
-24 -2 -9 -9 -11 -6 -7 10 2 12 0 24 -6 27 -5 4 -9 -1 -9 -10 0 -9 -5 -13 -11
-9 -6 3 -9 15 -6 25 3 10 2 21 -3 24 -4 3 -10 -11 -12 -29 -2 -19 -1 -33 3
-30 4 2 22 -8 40 -23 18 -16 30 -22 25 -15 -10 17 5 15 32 -3 20 -14 21 -14
16 0 -7 18 -8 18 34 6 20 -6 30 -6 27 0 -4 5 8 9 24 9 17 0 32 -4 32 -10 1 -5
3 -14 4 -20 1 -5 3 -13 4 -17 1 -5 8 3 17 17 l15 25 -6 -25 c-5 -22 -4 -23 5
-7 9 14 15 15 25 7 9 -8 15 -8 20 0 13 21 -84 84 -113 72 -12 -4 -12 -1 -3 17
7 12 16 19 21 16 6 -4 7 1 3 11 -5 13 -3 15 7 9 8 -5 11 -4 6 3 -3 6 2 13 12
16 15 5 17 14 12 56 -3 28 -9 50 -14 49 -5 0 -12 5 -17 13 -5 7 -21 12 -39 10
-21 -3 -30 1 -30 11 0 19 27 42 32 27 4 -12 78 46 78 62 0 7 -5 6 -14 -1 -11
-9 -16 -9 -22 0 -5 8 -3 9 6 4 8 -5 11 -4 6 3 -3 6 1 9 11 7 10 -1 28 6 40 17
12 11 26 17 31 14 5 -3 12 5 14 19 3 13 0 26 -6 29 -6 2 -3 10 9 19 11 8 17
18 13 22 -3 3 -9 1 -13 -4z m-29 -66 c-22 -17 -46 -20 -46 -6 0 11 18 19 45
20 20 0 20 0 1 -14z m-31 -34 c-9 -8 -36 -10 -30 -2 2 4 11 8 20 8 8 0 13 -3
10 -6z m-135 -145 c0 -2 -8 -10 -17 -17 -16 -13 -17 -12 -4 4 13 16 21 21 21
13z m40 -17 c0 -22 -24 -52 -34 -42 -10 10 -7 38 6 51 18 18 28 15 28 -9z m60
-35 c0 -13 -4 -24 -10 -24 -13 0 -32 38 -25 50 10 17 35 -2 35 -26z m-82 -36
c-2 -5 -8 -9 -13 -9 -5 0 -11 4 -13 9 -1 5 4 9 13 9 9 0 14 -4 13 -9z m38 -8
c8 0 14 -6 14 -14 0 -18 -27 -39 -40 -31 -13 8 -13 35 0 35 5 0 8 6 6 13 -1 6
-1 9 1 5 3 -5 11 -8 19 -8z m-56 -46 c0 -8 9 -14 20 -14 20 0 27 -14 12 -24
-11 -7 -27 5 -41 31 -14 27 -14 36 -1 28 6 -3 10 -13 10 -21z m-17 -14 c3 -11
1 -18 -4 -14 -5 3 -9 1 -9 -5 0 -5 5 -11 12 -13 8 -3 9 -6 1 -11 -5 -3 -15 5
-22 19 -6 15 -7 23 -1 19 5 -3 10 -1 10 4 0 6 -5 11 -11 11 -5 0 -7 5 -4 10 9
14 21 5 28 -20z"/>
<path d="M1965 3379 c-4 -6 -5 -12 -2 -15 2 -3 7 2 10 11 7 17 1 20 -8 4z"/>
<path d="M2036 3374 c-23 -23 -20 -30 4 -9 11 10 20 20 20 22 0 7 -9 2 -24
-13z"/>
<path d="M1985 3369 c-11 -17 1 -21 15 -4 8 9 8 15 2 15 -6 0 -14 -5 -17 -11z"/>
<path d="M2484 3358 c-13 -20 -11 -32 10 -50 29 -27 38 -22 34 19 -3 39 -28
57 -44 31z m36 -30 l-1 -33 -19 24 c-21 24 -19 41 6 41 9 0 14 -11 14 -32z"/>
<path d="M1944 3328 l-19 -23 23 19 c21 18 27 26 19 26 -2 0 -12 -10 -23 -22z"/>
<path d="M2274 3319 c-3 -6 -1 -16 5 -22 12 -12 61 6 61 23 0 7 -7 4 -16 -4
-17 -17 -44 -21 -44 -7 0 5 6 12 13 14 9 4 9 6 0 6 -6 1 -15 -4 -19 -10z"/>
<path d="M2637 3302 c-25 -28 -22 -52 8 -52 14 0 25 4 25 9 0 5 -9 7 -20 4
-23 -6 -28 15 -8 35 17 17 26 15 31 -5 4 -14 5 -12 6 5 1 27 -20 29 -42 4z"/>
<path d="M2988 3303 c23 -9 35 -43 21 -61 -12 -16 -12 -16 6 0 17 16 17 18 1
42 -9 14 -22 26 -29 25 -9 0 -9 -2 1 -6z"/>
<path d="M2408 3279 c-22 -12 -24 -59 -4 -59 8 0 18 4 21 10 3 6 -1 7 -9 4
-21 -8 -20 14 1 38 18 20 16 22 -9 7z"/>
<path d="M2780 3277 c0 -29 19 -57 40 -57 14 0 20 7 20 23 0 24 -17 47 -34 47
-6 0 -3 -5 7 -11 18 -11 24 -49 7 -49 -6 0 -17 15 -25 33 -9 20 -14 25 -15 14z"/>
<path d="M1933 3253 c-13 -8 -23 -23 -23 -32 0 -9 -6 -23 -12 -31 -7 -8 -1 -5
13 8 28 24 44 29 33 10 -4 -7 -4 -10 1 -6 4 4 14 0 23 -8 13 -14 16 -14 30 0
9 9 12 19 8 23 -4 4 -11 1 -16 -7 -7 -11 -11 -11 -24 -1 -9 8 -16 19 -16 27 0
21 22 28 35 11 16 -22 21 -21 21 1 0 24 -43 27 -73 5z"/>
<path d="M1852 3237 c-12 -13 -22 -27 -22 -32 0 -5 7 0 16 11 13 16 15 16 10
2 -8 -25 11 -22 25 3 17 32 -3 43 -29 16z"/>
<path d="M3218 3223 c-9 -10 -23 -33 -32 -50 -9 -18 -24 -33 -33 -33 -9 0 -13
-3 -10 -7 4 -3 2 -12 -4 -20 -8 -9 -8 -13 -1 -13 16 0 72 72 72 93 0 14 5 17
19 12 16 -5 18 -2 14 15 -6 24 -6 24 -25 3z"/>
<path d="M3296 3221 c5 -18 3 -22 -7 -16 -8 5 -4 -3 9 -17 20 -23 58 -36 46
-16 -3 5 -10 6 -15 3 -13 -8 -11 9 2 22 8 8 7 13 -2 18 -8 5 -10 4 -5 -3 4 -7
3 -12 -2 -12 -5 0 -14 10 -21 23 l-11 22 6 -24z"/>
<path d="M3258 3223 c7 -3 16 -2 19 1 4 3 -2 6 -13 5 -11 0 -14 -3 -6 -6z"/>
<path d="M2107 3199 c-6 -24 12 -71 24 -64 4 3 10 1 14 -5 11 -17 25 -1 25 28
-1 52 -52 85 -63 41z m53 -30 c0 -32 -34 -20 -38 14 -3 26 -2 28 17 17 12 -6
21 -20 21 -31z"/>
<path d="M3085 3189 c-4 -6 -5 -13 -2 -16 7 -7 27 6 27 18 0 12 -17 12 -25 -2z"/>
<path d="M3365 3170 c10 -11 20 -20 23 -20 3 0 -3 9 -13 20 -10 11 -20 20 -23
20 -3 0 3 -9 13 -20z"/>
<path d="M2767 3173 c-11 -11 -8 -48 5 -61 22 -22 38 -14 37 21 -2 29 -2 29
-6 5 -3 -18 -9 -25 -19 -21 -20 7 -18 40 4 52 14 9 15 10 1 11 -9 0 -19 -3
-22 -7z"/>
<path d="M1650 3162 c0 -5 7 -9 15 -9 8 0 12 4 9 9 -3 4 -9 8 -15 8 -5 0 -9
-4 -9 -8z"/>
<path d="M1865 3160 c-4 -6 -11 -7 -17 -4 -7 4 -8 2 -4 -5 6 -9 11 -9 22 0 14
11 18 19 10 19 -3 0 -8 -5 -11 -10z"/>
<path d="M3274 3162 c4 -6 -4 -12 -21 -14 -14 -2 -29 -9 -31 -17 -3 -8 0 -11
5 -8 6 4 23 -4 38 -17 l28 -24 -22 -28 c-19 -24 -20 -29 -7 -36 9 -5 13 -15 9
-24 -5 -15 -7 -15 -15 0 -5 9 -14 13 -20 10 -7 -4 -9 7 -6 34 2 22 0 38 -4 36
-5 -3 -8 -12 -8 -20 0 -8 -8 -14 -19 -14 -25 0 -39 -60 -17 -74 12 -8 12 -13
-2 -35 -16 -26 -16 -26 4 -8 11 9 24 14 28 10 4 -4 5 -1 2 7 -3 8 3 26 15 40
16 21 19 22 17 6 -4 -26 19 -32 27 -6 3 11 11 17 17 14 7 -4 8 -2 4 4 -4 7 -2
12 3 12 6 0 11 -5 11 -11 0 -5 5 -7 12 -3 7 5 9 2 6 -8 -5 -11 0 -14 18 -12
13 1 24 -3 24 -9 0 -5 3 -8 6 -5 3 4 -4 23 -15 45 -21 39 -29 39 -10 0 10 -21
9 -21 -10 2 -12 13 -21 29 -21 37 0 8 -4 14 -10 14 -5 0 -9 -3 -9 -7 1 -5 1
-15 0 -23 -1 -13 -2 -13 -11 0 -14 21 -12 27 6 34 9 4 24 1 32 -6 13 -11 15
-10 9 6 -6 16 -5 17 7 7 12 -10 14 -9 11 6 -1 10 -7 17 -12 16 -6 -1 -8 8 -6
20 3 15 -3 26 -19 36 -21 13 -22 13 -10 -2 20 -23 3 -47 -25 -36 -26 9 -31 29
-8 29 18 0 20 16 3 26 -6 4 -8 3 -4 -4z m-54 -162 c0 -23 -18 -36 -32 -22 -7
7 -6 17 2 31 13 24 30 19 30 -9z"/>
<path d="M2001 3128 c-10 -26 8 -63 30 -63 8 0 16 -3 19 -7 3 -4 11 10 17 32
9 34 8 38 -3 29 -10 -8 -14 -8 -14 -1 0 6 -9 16 -20 22 -17 9 -22 7 -29 -12z
m45 -43 c-10 -27 -31 -11 -34 26 l-3 34 22 -22 c13 -13 19 -28 15 -38z"/>
<path d="M2374 3127 c-27 -24 -29 -57 -3 -57 9 0 8 4 0 14 -13 15 -9 20 34 51
11 8 15 15 8 15 -7 0 -24 -11 -39 -23z"/>
<path d="M1866 3132 c-3 -5 1 -9 9 -9 8 0 12 4 9 9 -3 4 -7 8 -9 8 -2 0 -6 -4
-9 -8z"/>
<path d="M2090 3110 c0 -5 7 -7 15 -4 8 4 15 8 15 10 0 2 -7 4 -15 4 -8 0 -15
-4 -15 -10z"/>
<path d="M2403 3094 c-12 -26 -12 -26 7 -9 11 10 17 22 14 26 -7 12 -7 12 -21
-17z"/>
<path d="M3065 3109 c-4 -6 -5 -12 -2 -15 2 -3 7 2 10 11 7 17 1 20 -8 4z"/>
<path d="M3201 3104 c0 -11 3 -14 6 -6 3 7 2 16 -1 19 -3 4 -6 -2 -5 -13z"/>
<path d="M1597 3099 c7 -7 15 -10 18 -7 3 3 -2 9 -12 12 -14 6 -15 5 -6 -5z"/>
<path d="M3100 3086 c0 -27 -15 -42 -25 -26 -3 5 -11 10 -18 10 -7 0 -5 -7 5
-16 24 -24 48 -11 48 26 0 16 -2 30 -5 30 -3 0 -5 -11 -5 -24z"/>
<path d="M1900 3080 c-22 -11 -35 -26 -36 -39 -1 -12 3 -21 8 -21 5 0 6 -5 3
-10 -5 -8 -11 -8 -20 0 -10 8 -15 8 -21 -1 -5 -8 -3 -9 6 -4 10 6 12 4 7 -8
-8 -22 10 -18 37 7 14 14 21 16 24 7 2 -6 13 4 23 24 28 51 15 69 -31 45z m30
-9 c0 -5 -9 -19 -19 -32 -18 -23 -20 -23 -27 -5 -5 13 -1 23 11 32 22 16 35
18 35 5z"/>
<path d="M1520 3086 c0 -2 8 -10 18 -17 15 -13 16 -12 3 4 -13 16 -21 21 -21
13z"/>
<path d="M2536 3051 c-3 -5 1 -12 10 -15 10 -4 14 -16 12 -33 -4 -35 -22 -33
-26 3 -3 19 -6 23 -12 15 -10 -17 -2 -48 15 -55 7 -2 21 1 30 8 16 11 16 15 1
49 -16 38 -21 43 -30 28z"/>
<path d="M2669 3027 c-6 -14 -9 -33 -5 -42 8 -23 40 -14 44 12 2 16 12 23 35
26 l32 4 -35 1 c-20 1 -41 7 -48 14 -8 8 -14 5 -23 -15z m31 -17 c0 -11 -7
-20 -15 -20 -17 0 -18 2 -9 24 9 23 24 20 24 -4z"/>
<path d="M2878 3043 c6 -2 18 -2 25 0 6 3 1 5 -13 5 -14 0 -19 -2 -12 -5z"/>
<path d="M2070 3030 c0 -5 7 -7 15 -4 8 4 15 8 15 10 0 2 -7 4 -15 4 -8 0 -15
-4 -15 -10z"/>
<path d="M2117 3033 c-4 -3 -7 -16 -6 -27 0 -19 1 -19 10 3 10 24 8 36 -4 24z"/>
<path d="M2828 3033 c7 -3 16 -2 19 1 4 3 -2 6 -13 5 -11 0 -14 -3 -6 -6z"/>
<path d="M1983 3024 c13 -4 17 -14 15 -32 -4 -36 -24 -39 -36 -5 l-10 28 -1
-27 c-1 -38 33 -57 49 -28 16 31 9 64 -15 67 -17 2 -17 1 -2 -3z"/>
<path d="M2178 3023 c7 -3 16 -2 19 1 4 3 -2 6 -13 5 -11 0 -14 -3 -6 -6z"/>
<path d="M1500 3013 c0 -4 5 -15 10 -23 8 -13 10 -13 10 2 0 9 -4 20 -10 23
-5 3 -10 3 -10 -2z"/>
<path d="M2404 2989 c-16 -26 -10 -60 14 -75 13 -9 24 -14 25 -12 1 2 13 19
26 38 14 19 18 29 9 22 -14 -11 -17 -10 -20 10 -3 26 -41 37 -54 17z m44 -32
c3 -23 0 -28 -15 -25 -11 2 -19 14 -21 31 -3 23 0 28 15 25 11 -2 19 -14 21
-31z"/>
<path d="M2840 2975 c0 -14 10 -35 22 -47 20 -20 22 -20 35 -3 17 24 17 40 -3
59 -25 25 -54 20 -54 -9z m41 5 c21 -12 25 -35 9 -45 -15 -9 -40 14 -40 36 0
22 4 23 31 9z"/>
<path d="M2131 2974 c0 -11 3 -14 6 -6 3 7 2 16 -1 19 -3 4 -6 -2 -5 -13z"/>
<path d="M2193 2974 c-7 -7 -12 -30 -12 -51 1 -25 3 -30 6 -15 4 22 5 23 21 5
28 -30 39 -25 45 20 3 23 4 43 2 46 -11 10 -51 7 -62 -5z m47 -36 l-1 -33 -19
24 c-21 24 -19 41 6 41 9 0 14 -11 14 -32z"/>
<path d="M3075 2970 c-3 -5 3 -10 14 -10 12 0 21 5 21 10 0 6 -6 10 -14 10 -8
0 -18 -4 -21 -10z"/>
<path d="M1490 2961 c0 -5 5 -13 10 -16 6 -3 10 -2 10 4 0 5 -4 13 -10 16 -5
3 -10 2 -10 -4z"/>
<path d="M2007 2946 c-4 -10 -3 -15 3 -11 6 3 10 1 10 -6 0 -7 3 -10 6 -6 3 3
2 13 -4 22 -8 16 -9 16 -15 1z"/>
<path d="M2697 2934 c-10 -13 -13 -24 -8 -24 5 0 13 5 16 10 4 6 10 8 15 5 4
-3 7 2 6 10 -4 24 -10 24 -29 -1z"/>
<path d="M1876 2934 c-4 -10 -1 -14 6 -12 15 5 23 28 10 28 -5 0 -13 -7 -16
-16z"/>
<path d="M1920 2935 c0 -8 4 -15 9 -15 5 0 11 7 15 15 3 9 0 15 -9 15 -8 0
-15 -7 -15 -15z"/>
<path d="M2751 2933 c-6 -12 -5 -22 4 -30 10 -9 15 -6 24 15 11 26 11 26 -5 7
-16 -20 -16 -20 -11 3 6 26 1 29 -12 5z"/>
<path d="M2135 2920 c-3 -5 -1 -10 4 -10 6 0 11 5 11 10 0 6 -2 10 -4 10 -3 0
-8 -4 -11 -10z"/>
<path d="M2365 2909 c-11 -16 -1 -19 13 -3 7 8 8 14 3 14 -5 0 -13 -5 -16 -11z"/>
<path d="M2726 2883 c-6 -14 -5 -15 5 -6 7 7 10 15 7 18 -3 3 -9 -2 -12 -12z"/>
<path d="M2835 2890 c-18 -8 -17 -9 8 -9 16 -1 26 3 22 9 -3 6 -7 10 -8 9 -1
0 -11 -4 -22 -9z"/>
<path d="M1915 2880 c-3 -5 -1 -10 4 -10 6 0 11 5 11 10 0 6 -2 10 -4 10 -3 0
-8 -4 -11 -10z"/>
<path d="M2471 2868 c-12 -4 -21 -9 -21 -10 0 -8 86 5 95 13 11 11 -43 9 -74
-3z"/>
<path d="M1870 2692 c0 -6 -12 -18 -27 -26 -16 -8 -23 -15 -17 -16 18 0 60 37
52 46 -5 4 -8 2 -8 -4z"/>
<path d="M2670 2715 c0 -5 5 -17 10 -25 5 -8 10 -10 10 -5 0 6 -5 17 -10 25
-5 8 -10 11 -10 5z"/>
<path d="M2082 2630 c0 -14 2 -19 5 -12 2 6 2 18 0 25 -3 6 -5 1 -5 -13z"/>
<path d="M2209 2603 c-13 -16 -12 -17 4 -4 9 7 17 15 17 17 0 8 -8 3 -21 -13z"/>
<path d="M2806 2607 c3 -10 9 -15 12 -12 3 3 0 11 -7 18 -10 9 -11 8 -5 -6z"/>
<path d="M3078 2593 c6 -2 18 -2 25 0 6 3 1 5 -13 5 -14 0 -19 -2 -12 -5z"/>
<path d="M3143 2583 c9 -2 25 -2 35 0 9 3 1 5 -18 5 -19 0 -27 -2 -17 -5z"/>
<path d="M3418 2583 c7 -3 16 -2 19 1 4 3 -2 6 -13 5 -11 0 -14 -3 -6 -6z"/>
<path d="M3298 2573 c12 -2 32 -2 45 0 12 2 2 4 -23 4 -25 0 -35 -2 -22 -4z"/>
<path d="M1675 2529 c22 -4 51 -8 65 -7 16 0 11 3 -15 9 -22 4 -51 8 -65 7
-16 0 -11 -3 15 -9z"/>
<path d="M1602 2505 c0 -16 2 -22 5 -12 2 9 2 23 0 30 -3 6 -5 -1 -5 -18z"/>
<path d="M1798 2513 c7 -3 16 -2 19 1 4 3 -2 6 -13 5 -11 0 -14 -3 -6 -6z"/>
<path d="M1868 2503 c6 -2 18 -2 25 0 6 3 1 5 -13 5 -14 0 -19 -2 -12 -5z"/>
<path d="M2203 2493 c20 -2 54 -2 75 0 20 2 3 4 -38 4 -41 0 -58 -2 -37 -4z"/>
<path d="M2108 2223 c12 -2 30 -2 40 0 9 3 -1 5 -23 4 -22 0 -30 -2 -17 -4z"/>
<path d="M2458 2503 c6 -2 18 -2 25 0 6 3 1 5 -13 5 -14 0 -19 -2 -12 -5z"/>
<path d="M3197 2293 c18 -2 50 -2 70 0 21 2 7 4 -32 4 -38 0 -55 -2 -38 -4z"/>
<path d="M1440 2306 c0 -25 5 -48 10 -51 6 -4 10 8 10 29 0 19 5 38 10 41 17
10 11 25 -10 25 -17 0 -20 -7 -20 -44z"/>
<path d="M2296 2333 c-9 -22 4 -133 15 -133 5 0 9 27 9 59 0 33 3 66 6 75 4
10 1 16 -9 16 -8 0 -18 -7 -21 -17z"/>
<path d="M1447 2113 c-4 -3 -7 -33 -7 -65 0 -45 3 -58 15 -58 11 0 15 11 15
43 0 23 3 52 6 65 5 15 2 22 -8 22 -8 0 -18 -3 -21 -7z"/>
<path d="M3438 3493 c7 -3 16 -2 19 1 4 3 -2 6 -13 5 -11 0 -14 -3 -6 -6z"/>
<path d="M3556 3325 c-3 -8 -19 -23 -36 -34 l-31 -18 33 -38 c71 -83 90 -92
122 -59 21 20 20 49 -1 85 -21 35 -27 36 -65 4 -31 -26 -48 -32 -48 -16 0 10
43 47 63 54 9 3 9 8 -2 20 -17 21 -27 21 -35 2z m84 -87 c0 -19 -31 -48 -52
-48 -25 0 -23 24 5 43 27 19 47 21 47 5z"/>
<path d="M3613 3115 c7 -13 12 -16 15 -7 6 18 29 15 36 -5 4 -10 1 -22 -7 -28
-12 -9 -13 -15 -3 -33 12 -22 13 -21 45 24 43 62 37 74 -38 71 -56 -2 -58 -3
-48 -22z m85 3 c-6 -18 -28 -21 -28 -4 0 9 7 16 16 16 9 0 14 -5 12 -12z"/>
<path d="M1460 2793 c0 -6 -8 -14 -17 -16 -12 -3 -8 -5 9 -6 14 0 34 -4 44 -8
16 -6 16 -7 -2 -14 -12 -4 -4 -6 22 -5 49 1 48 10 -4 27 -20 6 -40 17 -44 23
-6 8 -8 8 -8 -1z"/>
<path d="M1616 2792 c-3 -5 1 -9 9 -9 8 0 12 4 9 9 -3 4 -7 8 -9 8 -2 0 -6 -4
-9 -8z"/>
<path d="M2890 2371 c14 -27 13 -104 -2 -119 -7 -7 -23 -13 -38 -13 -24 -1
-23 -2 5 -9 64 -16 65 -15 65 51 0 37 4 58 10 54 6 -3 10 5 10 19 0 15 7 26
18 29 9 3 -5 5 -31 6 -44 1 -47 0 -37 -18z m31 0 c7 11 9 10 9 -4 0 -20 -22
-19 -26 1 -2 9 -1 9 3 1 4 -8 8 -7 14 2z"/>
<path d="M3670 2267 c0 -66 -4 -99 -15 -113 -20 -27 -18 -56 10 -159 35 -125
34 -132 -15 -140 -56 -9 -40 -25 26 -25 42 0 54 3 54 15 0 9 -14 72 -31 141
-31 121 -31 127 -15 160 16 35 23 165 10 198 -15 39 -24 9 -24 -77z"/>
<path d="M3490 1988 c0 -113 -5 -125 -48 -135 -19 -5 -37 -15 -39 -23 -4 -13
-3 -13 7 0 9 12 10 6 6 -25 l-6 -40 14 33 c13 27 20 32 51 32 l35 0 0 120 c0
73 -4 120 -10 120 -6 0 -10 -34 -10 -82z"/>
<path d="M1607 1823 c-9 -11 -14 -24 -10 -28 5 -5 1 -4 -8 3 -14 10 -20 10
-33 -3 -9 -9 -16 -12 -16 -7 0 5 -7 9 -15 9 -8 0 -15 -4 -15 -9 0 -4 4 -8 9
-8 5 0 9 -23 9 -51 1 -28 3 -54 6 -57 3 -3 6 7 6 21 0 17 6 28 15 29 8 0 20 1
27 2 6 1 12 -7 14 -17 1 -11 6 -22 10 -25 4 -4 5 1 1 10 -3 9 0 19 8 22 8 3
12 12 9 21 -3 8 -10 13 -14 10 -4 -3 -10 4 -13 15 -3 11 -2 18 3 15 13 -8 32
22 28 46 -3 21 -3 21 -21 2z m13 -19 c0 -8 -5 -12 -10 -9 -6 4 -8 11 -5 16 9
14 15 11 15 -7z m-43 -46 c-3 -8 -6 -5 -6 6 -1 11 2 17 5 13 3 -3 4 -12 1 -19z"/>
<path d="M3317 1817 c-3 -8 -1 -19 5 -25 19 -19 -20 -27 -41 -8 -22 20 -31 20
-31 1 0 -8 6 -14 13 -12 7 1 11 -6 9 -18 -2 -17 -1 -17 8 -5 9 13 11 13 20 0
7 -11 10 -12 10 -2 0 8 6 12 13 9 12 -4 42 52 32 61 -3 3 -5 -1 -5 -9 -1 -10
-4 -9 -14 4 -11 14 -15 15 -19 4z"/>
<path d="M1430 1793 c0 -14 54 -111 73 -131 67 -72 259 -144 417 -156 30 -2
94 -10 142 -17 83 -11 87 -13 90 -38 2 -21 8 -26 31 -26 26 1 27 0 11 -12 -16
-12 -15 -13 9 -13 l27 0 0 170 c0 98 -4 170 -9 170 -5 0 -12 -8 -14 -17 -3
-10 -5 -5 -6 12 l-1 30 61 0 c54 0 58 -1 40 -14 -18 -12 -21 -24 -21 -88 0
-63 -2 -74 -15 -69 -8 3 -15 1 -15 -4 0 -6 8 -10 19 -10 10 0 24 -7 31 -15 7
-8 27 -16 44 -16 30 -2 30 -2 4 -6 -16 -2 -28 -9 -28 -14 0 -6 -12 -9 -27 -7
-19 2 -27 8 -25 18 2 8 0 12 -4 7 -16 -15 -14 -46 4 -50 16 -4 16 -5 0 -6 -23
-1 -23 -20 -1 -28 9 -4 25 -15 35 -25 37 -37 127 -13 129 35 1 18 2 19 6 4 6
-24 -22 -55 -61 -66 l-31 -9 32 -1 c23 -1 38 7 57 30 26 30 27 35 24 148 -2
86 -6 115 -15 114 -7 -2 -13 6 -13 16 0 22 -44 61 -69 62 -10 0 -12 2 -3 6 6
2 12 9 12 15 0 6 -8 7 -17 3 -42 -16 -62 -19 -126 -17 -39 1 -65 -2 -62 -8 3
-5 -8 -19 -25 -31 -36 -27 -40 -58 -7 -60 17 -1 18 -2 4 -6 -9 -2 -15 -9 -11
-14 3 -5 10 -7 15 -3 7 4 9 -18 7 -60 -2 -43 -7 -66 -15 -66 -6 0 -15 5 -18
10 -9 15 -27 12 -19 -2 4 -7 -2 -4 -14 6 -17 15 -19 22 -10 33 6 8 18 11 27 8
14 -4 14 -4 0 8 -9 7 -19 21 -22 32 -4 18 -5 17 -6 -3 -1 -22 -26 -41 -38 -28
-3 3 -1 18 6 33 10 26 10 27 -4 9 -8 -11 -15 -23 -15 -27 0 -4 -17 -10 -37
-12 l-38 -4 38 -1 c26 -2 37 -7 37 -18 0 -8 4 -13 9 -10 4 3 16 -3 26 -14 21
-24 11 -26 -28 -5 -15 8 -25 10 -22 5 10 -16 -185 -17 -213 -1 -16 10 -16 10
0 11 9 0 19 6 21 13 3 7 6 5 6 -5 1 -10 6 -18 11 -18 9 0 -30 81 -48 100 -5 6
5 -40 14 -64 10 -25 -26 -8 -36 18 -7 17 -9 18 -9 4 -1 -19 -21 -26 -21 -7 0
5 -5 7 -10 4 -6 -4 -17 -1 -25 5 -11 9 -15 9 -15 1 0 -6 8 -14 18 -17 47 -16
72 -27 67 -32 -5 -6 -143 45 -162 60 -7 6 -12 13 -11 16 0 4 -1 12 -2 17 -1 6
-3 15 -5 20 -1 6 -3 18 -3 27 -3 25 -32 11 -32 -16 0 -17 2 -18 10 -6 5 8 10
11 10 5 0 -5 -4 -16 -9 -24 -11 -17 -51 2 -51 24 0 8 -4 15 -10 15 -5 0 -10
10 -10 23 0 16 3 18 9 8 7 -11 10 -9 16 8 4 13 4 25 1 28 -3 4 -6 -1 -6 -10 0
-11 -5 -14 -16 -10 -10 4 -14 13 -10 27 4 18 1 21 -24 22 -17 1 -30 -1 -30 -3z
m945 -139 c0 -42 -3 -49 -20 -49 -16 0 -21 8 -23 38 -3 39 12 71 32 64 6 -2
11 -26 11 -53z m-168 -66 c-2 -18 -4 -4 -4 32 0 36 2 50 4 33 2 -18 2 -48 0
-65z m230 -5 c-2 -21 -4 -6 -4 32 0 39 2 55 4 38 2 -18 2 -50 0 -70z m-57 -65
c0 -10 -9 -9 -35 2 -17 8 -16 8 8 7 15 -1 27 -5 27 -9z m0 -22 c0 -3 -4 -8
-10 -11 -5 -3 -10 -1 -10 4 0 6 5 11 10 11 6 0 10 -2 10 -4z"/>
<path d="M2346 1684 c-9 -24 -7 -62 4 -69 6 -4 10 12 10 39 0 48 -4 56 -14 30z"/>
<path d="M3154 1765 c-19 -29 -12 -55 15 -62 16 -4 18 -10 11 -33 -7 -24 -5
-29 15 -32 17 -4 26 1 34 19 13 28 15 73 3 73 -5 0 -7 -13 -4 -28 2 -18 -2
-33 -12 -41 -23 -20 -32 -5 -19 30 14 36 6 99 -13 99 -7 0 -21 -11 -30 -25z
m36 -16 c0 -23 -4 -30 -17 -27 -23 4 -27 23 -8 42 22 22 25 21 25 -15z"/>
<path d="M3475 1768 c-6 -13 -16 -22 -23 -20 -7 1 -12 -5 -12 -13 0 -33 -97
-114 -120 -100 -4 3 -10 -1 -13 -9 -3 -8 -14 -13 -24 -12 -10 2 -21 -2 -25 -7
-3 -6 -12 -12 -20 -14 -7 -1 -40 -10 -73 -18 -33 -9 -76 -18 -95 -21 -54 -6
-132 -13 -162 -14 -16 0 -28 -4 -28 -9 0 -5 12 -12 28 -14 25 -4 25 -4 -5 -6
-26 -1 -33 -5 -33 -21 0 -25 19 -26 149 -4 99 16 260 63 315 91 97 49 148 106
161 176 8 41 -4 50 -20 15z m-35 -92 c0 -2 -7 -7 -16 -10 -8 -3 -12 -2 -9 4 6
10 25 14 25 6z m-74 -51 c-11 -8 -25 -15 -30 -15 -6 1 0 7 14 15 32 19 40 18
16 0z m-383 -112 c-7 -2 -21 -2 -30 0 -10 3 -4 5 12 5 17 0 24 -2 18 -5z"/>
<path d="M2717 1762 c-33 -36 -16 -52 54 -52 44 0 43 1 28 -70 l-11 -50 -44 0
c-24 0 -44 -4 -44 -9 0 -14 31 -19 58 -9 20 7 23 5 20 -14 -2 -18 -11 -24 -38
-28 -31 -4 -35 -9 -38 -37 -2 -29 1 -33 23 -33 18 0 25 -5 25 -20 0 -32 48
-27 56 5 4 14 9 24 11 21 10 -10 -10 -48 -30 -56 -20 -8 -19 -9 9 -9 l32 -1
26 108 c38 149 47 199 38 219 -5 14 -8 10 -13 -17 l-6 -35 -2 43 -1 42 -44 0
c-25 0 -48 5 -51 10 -10 16 -40 12 -58 -8z m150 -114 c-3 -8 -6 -5 -6 6 -1 11
2 17 5 13 3 -3 4 -12 1 -19z m-10 -40 c-3 -8 -6 -5 -6 6 -1 11 2 17 5 13 3 -3
4 -12 1 -19z m-10 -40 c-3 -8 -6 -5 -6 6 -1 11 2 17 5 13 3 -3 4 -12 1 -19z
m-10 -40 c-3 -8 -6 -5 -6 6 -1 11 2 17 5 13 3 -3 4 -12 1 -19z m-10 -40 c-3
-8 -6 -5 -6 6 -1 11 2 17 5 13 3 -3 4 -12 1 -19z"/>
<path d="M1970 1761 c0 -6 4 -12 8 -15 5 -3 9 1 9 9 0 8 -4 15 -9 15 -4 0 -8
-4 -8 -9z"/>
<path d="M2543 1760 c-35 -14 -46 -46 -41 -121 5 -63 4 -68 -16 -72 -16 -3
-15 -5 7 -6 15 0 27 -4 27 -9 0 -4 19 -7 43 -5 23 1 33 0 22 -3 -11 -3 -24
-10 -29 -15 -6 -5 -27 -9 -48 -9 -36 0 -38 -2 -38 -30 0 -21 5 -30 16 -30 9 0
27 -9 41 -20 34 -27 81 -26 110 2 16 15 22 17 18 7 -6 -17 -36 -35 -70 -42
-12 -3 -7 -5 13 -6 23 -1 41 7 57 24 24 23 25 28 23 152 l-2 128 -6 -120 -6
-120 -2 125 c-3 129 -8 146 -49 168 -25 14 -40 14 -70 2z m61 -82 c13 -36 0
-80 -22 -76 -18 3 -29 65 -18 95 8 21 29 11 40 -19z m-4 -160 c0 -4 -4 -8 -9
-8 -6 0 -12 4 -15 8 -3 5 1 9 9 9 8 0 15 -4 15 -9z"/>
<path d="M2577 1693 c-4 -3 -6 -25 -6 -47 l2 -41 7 45 c8 48 7 54 -3 43z"/>
<path d="M2952 1758 c-15 -15 -15 -35 -1 -44 7 -4 10 -1 7 7 -3 8 -1 22 4 32
10 20 7 22 -10 5z"/>
<path d="M1632 1720 c-9 -19 -9 -34 -2 -51 9 -21 9 -20 4 9 -3 20 -2 32 5 32
6 0 12 -7 12 -15 3 -34 15 -55 30 -55 5 0 3 10 -6 23 -8 13 -13 26 -10 29 3 3
-1 16 -8 30 l-13 26 -12 -28z"/>
<path d="M1810 1735 c-11 -13 -10 -14 4 -9 9 3 16 10 16 15 0 13 -6 11 -20 -6z"/>
<path d="M1844 1741 c10 -16 -13 -63 -28 -58 -10 4 -12 0 -8 -15 3 -13 7 -16
12 -8 5 7 13 9 20 5 8 -5 11 -4 7 3 -9 13 2 44 13 37 4 -2 5 7 2 20 -2 14 -9
25 -14 25 -5 0 -7 -4 -4 -9z"/>
<path d="M3386 1725 c-9 -26 -7 -32 5 -12 6 10 9 21 6 23 -2 3 -7 -2 -11 -11z"/>
<path d="M2745 1690 c3 -5 17 -10 31 -10 13 0 24 5 24 10 0 6 -14 10 -31 10
-17 0 -28 -4 -24 -10z"/>
<path d="M3014 1636 c-4 -9 -4 -20 0 -23 3 -4 6 1 6 10 0 15 3 15 20 5 11 -7
20 -21 20 -30 0 -20 -26 -24 -33 -5 -3 7 -6 5 -6 -5 -1 -13 7 -18 25 -18 22 0
25 4 22 26 -2 15 -13 33 -25 42 -20 13 -23 13 -29 -2z"/>
<path d="M1610 1631 c8 -5 26 -12 39 -16 20 -6 22 -5 11 7 -8 8 -25 15 -39 16
-19 1 -22 -1 -11 -7z"/>
<path d="M3191 1611 c-8 -6 -9 -11 -3 -15 6 -3 14 -1 17 5 9 14 2 20 -14 10z"/>
<path d="M1900 1597 c0 -8 7 -14 15 -14 8 0 16 6 19 14 3 8 -2 13 -14 13 -11
0 -20 -6 -20 -13z"/>
<path d="M1856 1587 c3 -10 9 -15 12 -12 3 3 0 11 -7 18 -10 9 -11 8 -5 -6z"/>
<path d="M2897 1579 c8 -8 16 -8 30 0 16 9 14 10 -11 11 -22 0 -27 -3 -19 -11z"/>
<path d="M1917 1554 c6 -16 13 -17 33 -4 8 5 11 10 5 11 -5 0 -18 2 -27 4 -11
2 -15 -2 -11 -11z"/>
<path d="M2076 1558 c3 -5 10 -6 15 -3 13 9 11 12 -6 12 -8 0 -12 -4 -9 -9z"/>
<path d="M1870 1549 c0 -5 9 -9 20 -9 11 0 20 2 20 4 0 2 -9 6 -20 9 -11 3
-20 1 -20 -4z"/>
</g>
</svg>
