<?xml version="1.0" standalone="no"?>
<!DOCTYPE svg PUBLIC "-//W3C//DTD SVG 20010904//EN"
 "http://www.w3.org/TR/2001/REC-SVG-20010904/DTD/svg10.dtd">
<svg version="1.0" xmlns="http://www.w3.org/2000/svg"
 width="500.000000pt" height="500.000000pt" viewBox="0 0 500.000000 500.000000"
 preserveAspectRatio="xMidYMid meet">

<g transform="translate(0.000000,500.000000) scale(0.100000,-0.100000)"
fill="#000000" stroke="none">
<path d="M1832 2213 c-1 -122 1 -224 6 -226 4 -3 6 63 4 146 -4 277 -8 305
-10 80z"/>
<path d="M2022 2318 c-1 -64 1 -119 6 -121 4 -3 6 32 4 76 -5 147 -8 164 -10
45z"/>
<path d="M3267 2403 l-6 -32 -78 -3 -78 -3 -1 -70 -1 -70 4 68 4 67 74 0 c65
0 76 3 85 21 6 11 10 28 8 37 -2 10 -7 4 -11 -15z"/>
<path d="M1870 2181 c0 -134 4 -211 10 -211 6 0 10 75 10 204 0 126 -4 207
-10 211 -7 4 -10 -67 -10 -204z"/>
<path d="M2068 2288 c-2 -57 0 -107 4 -112 5 -6 8 40 8 102 0 62 -2 112 -4
112 -3 0 -6 -46 -8 -102z"/>
<path d="M3300 2361 c0 -35 -13 -41 -96 -41 l-64 0 0 -50 c0 -27 5 -50 10 -50
6 0 10 18 10 40 l0 40 68 0 c40 0 73 5 80 12 14 14 16 78 2 78 -5 0 -10 -13
-10 -29z"/>
<path d="M2474 2280 c0 -52 1 -74 3 -47 2 26 2 68 0 95 -2 26 -3 4 -3 -48z"/>
<path d="M2718 2359 c-10 -5 -18 -18 -17 -27 0 -14 2 -14 6 -2 4 8 13 20 22
27 19 15 13 16 -11 2z"/>
<path d="M2881 2354 c0 -11 3 -14 6 -6 3 7 2 16 -1 19 -3 4 -6 -2 -5 -13z"/>
<path d="M3662 2282 c-1 -61 -7 -103 -18 -123 -8 -17 -14 -33 -11 -35 2 -2 12
13 21 33 13 29 16 59 13 128 l-3 90 -2 -93z"/>
<path d="M1433 2345 c-3 -9 -3 -18 -1 -21 3 -3 8 4 11 16 6 23 -1 27 -10 5z"/>
<path d="M1475 2350 c3 -5 11 -10 16 -10 6 0 7 5 4 10 -3 6 -11 10 -16 10 -6
0 -7 -4 -4 -10z"/>
<path d="M2284 2347 c-3 -8 -3 -45 -1 -83 l3 -69 2 78 c2 73 3 77 25 77 13 0
28 -5 35 -12 8 -8 12 -8 12 -1 0 23 -67 32 -76 10z"/>
<path d="M2750 2350 c0 -5 5 -10 11 -10 5 0 7 5 4 10 -3 6 -8 10 -11 10 -2 0
-4 -4 -4 -10z"/>
<path d="M3506 2351 c17 -4 37 -11 45 -15 8 -4 5 0 -5 8 -11 9 -31 16 -45 15
-24 -1 -24 -2 5 -8z"/>
<path d="M1622 2308 c-1 -25 -5 -55 -8 -65 -5 -17 -5 -17 6 0 6 9 9 39 7 65
l-3 47 -2 -47z"/>
<path d="M3473 2290 c0 -30 2 -43 4 -27 2 15 2 39 0 55 -2 15 -4 2 -4 -28z"/>
<path d="M2511 2252 c-1 -54 -6 -93 -17 -113 -8 -17 -14 -38 -12 -47 3 -14 7
-12 22 10 19 29 29 162 15 208 -5 17 -8 -3 -8 -58z"/>
<path d="M2925 2277 c0 -44 -3 -53 -23 -63 l-23 -11 23 -7 c13 -3 26 -6 31 -6
4 0 7 29 7 64 0 36 -3 67 -7 69 -5 3 -8 -18 -8 -46z"/>
<path d="M3700 2247 c0 -57 -5 -98 -15 -116 -10 -20 -11 -37 -5 -57 6 -23 8
-24 9 -8 1 12 8 38 16 57 17 41 20 173 5 197 -7 10 -10 -12 -10 -73z"/>
<path d="M1468 2280 c-2 -22 0 -40 4 -40 5 0 8 9 8 21 0 11 5 29 10 40 8 15 7
19 -4 19 -9 0 -15 -14 -18 -40z"/>
<path d="M2328 2313 c-5 -25 -2 -123 5 -123 4 0 7 22 7 49 0 27 3 56 6 65 3 9
1 16 -5 16 -6 0 -12 -3 -13 -7z"/>
<path d="M2741 2258 l2 -63 6 50 c4 28 10 56 14 63 5 8 3 12 -7 12 -13 0 -16
-12 -15 -62z"/>
<path d="M3518 2255 c-1 -36 0 -65 5 -65 4 0 7 19 7 43 0 23 3 52 6 65 4 12 2
22 -4 22 -6 0 -12 -29 -14 -65z"/>
<path d="M2694 2170 c0 -80 2 -112 3 -72 2 39 2 105 0 145 -1 39 -3 7 -3 -73z"/>
<path d="M1431 2264 c0 -11 3 -14 6 -6 3 7 2 16 -1 19 -3 4 -6 -2 -5 -13z"/>
<path d="M2876 2265 c-3 -8 -1 -15 4 -15 6 0 10 7 10 15 0 8 -2 15 -4 15 -2 0
-6 -7 -10 -15z"/>
<path d="M1660 2253 c0 -10 -9 -37 -20 -60 -10 -24 -15 -45 -11 -47 4 -3 13 6
20 21 14 30 26 103 17 103 -3 0 -6 -8 -6 -17z"/>
<path d="M2810 2241 c0 -4 11 -6 25 -3 14 2 25 6 25 8 0 2 -11 4 -25 4 -14 0
-25 -4 -25 -9z"/>
<path d="M1590 2201 c-7 -15 -7 -22 2 -27 7 -4 10 -4 6 1 -4 4 -3 16 3 26 5
11 7 19 5 19 -3 0 -10 -9 -16 -19z"/>
<path d="M3221 2162 c-1 -24 -7 -35 -23 -42 l-23 -9 23 0 c26 -1 35 16 29 56
-4 27 -4 27 -6 -5z"/>
<path d="M2445 2147 c-15 -28 -16 -39 -7 -63 l12 -29 -6 33 c-4 22 0 41 11 58
9 14 15 28 12 30 -2 2 -12 -11 -22 -29z"/>
<path d="M2894 2085 c0 -55 1 -76 3 -47 2 29 2 74 0 100 -2 26 -3 2 -3 -53z"/>
<path d="M2043 2148 c-21 -10 -23 -18 -23 -95 0 -103 -23 -157 -75 -179 -40
-17 -107 -18 -138 -3 l-22 10 22 -19 c18 -16 30 -18 79 -11 106 14 144 66 144
195 0 73 2 83 23 97 26 18 22 20 -10 5z"/>
<path d="M2928 2027 c-3 -65 -10 -121 -18 -132 -27 -42 -71 -68 -128 -75 l-57
-6 37 -8 c80 -17 159 38 177 123 13 61 15 198 2 205 -4 3 -10 -45 -13 -107z"/>
<path d="M3260 2119 c0 -37 -18 -49 -72 -49 l-48 0 0 -50 c0 -58 17 -68 22
-12 l3 37 55 5 c54 5 55 6 58 39 2 18 -1 38 -7 44 -8 8 -11 4 -11 -14z"/>
<path d="M1434 2116 c-3 -7 -3 -42 -1 -77 l3 -64 2 73 c2 62 4 72 20 72 10 0
24 -6 32 -12 12 -11 12 -10 1 5 -16 20 -49 23 -57 3z"/>
<path d="M2738 2055 c-2 -41 0 -75 5 -75 4 0 7 34 7 75 0 41 -2 75 -4 75 -3 0
-6 -34 -8 -75z"/>
<path d="M2084 2102 c-6 -4 -14 -42 -17 -85 -4 -42 -13 -92 -21 -110 -16 -40
-59 -76 -98 -84 -16 -3 -28 -9 -28 -13 0 -12 83 10 102 27 34 31 58 97 58 161
0 51 4 64 20 74 11 7 20 18 20 25 0 14 -19 17 -36 5z"/>
<path d="M3104 2096 c-3 -7 -3 -38 -1 -67 l3 -54 2 62 c1 38 7 63 15 66 9 4 9
6 -1 6 -7 1 -15 -5 -18 -13z"/>
<path d="M3631 2084 c0 -11 3 -14 6 -6 3 7 2 16 -1 19 -3 4 -6 -2 -5 -13z"/>
<path d="M1476 2083 c-10 -10 -7 -103 3 -103 5 0 11 23 13 51 3 49 -2 66 -16
52z"/>
<path d="M1633 2035 c0 -33 2 -45 4 -27 2 18 2 45 0 60 -2 15 -4 0 -4 -33z"/>
<path d="M2287 2073 c-4 -3 -7 -51 -7 -105 l0 -98 -40 0 c-38 0 -52 -12 -30
-25 6 -3 10 -2 10 4 0 5 15 11 33 13 l32 3 5 108 c3 59 5 107 4 107 0 0 -4 -3
-7 -7z"/>
<path d="M1668 2013 c3 -47 -1 -67 -20 -103 -35 -66 -87 -90 -197 -90 -63 0
-82 -3 -74 -11 8 -8 44 -10 107 -7 103 4 128 15 170 71 23 31 35 152 19 181
-6 12 -8 -2 -5 -41z"/>
<path d="M2491 2054 c0 -11 3 -14 6 -6 3 7 2 16 -1 19 -3 4 -6 -2 -5 -13z"/>
<path d="M3472 1968 l-2 -98 -35 0 c-27 0 -35 -4 -34 -17 0 -11 3 -13 6 -5 2
6 18 12 34 12 16 0 32 6 35 13 3 8 3 54 1 103 l-3 89 -2 -97z"/>
<path d="M3520 1942 c0 -107 -6 -122 -52 -122 -15 0 -28 -4 -28 -10 0 -5 20
-10 45 -10 l45 0 0 120 c0 66 -2 120 -5 120 -3 0 -5 -44 -5 -98z"/>
<path d="M3691 2024 c0 -11 3 -14 6 -6 3 7 2 16 -1 19 -3 4 -6 -2 -5 -13z"/>
<path d="M2328 2010 c-5 -14 -9 -61 -10 -105 l-3 -80 -38 -3 c-20 -2 -35 -7
-32 -13 9 -14 85 -11 91 4 2 7 3 60 2 118 -2 66 -6 95 -10 79z"/>
<path d="M2507 2000 c3 -19 12 -53 19 -75 13 -38 13 -38 7 -5 -3 19 -12 53
-19 75 -13 38 -13 38 -7 5z"/>
<path d="M2701 2004 c0 -11 3 -14 6 -6 3 7 2 16 -1 19 -3 4 -6 -2 -5 -13z"/>
<path d="M3651 2004 c0 -11 3 -14 6 -6 3 7 2 16 -1 19 -3 4 -6 -2 -5 -13z"/>
<path d="M3661 1964 c0 -11 3 -14 6 -6 3 7 2 16 -1 19 -3 4 -6 -2 -5 -13z"/>
<path d="M1616 1953 c-4 -11 -20 -33 -37 -49 -29 -27 -36 -29 -137 -35 l-107
-5 99 -2 c85 -2 103 1 133 19 31 20 70 75 60 86 -3 2 -8 -4 -11 -14z"/>
<path d="M2880 1956 c0 -22 -41 -67 -74 -82 -21 -9 -25 -13 -12 -14 22 0 96
71 96 94 0 9 -2 16 -5 16 -3 0 -5 -6 -5 -14z"/>
<path d="M3671 1924 c0 -11 3 -14 6 -6 3 7 2 16 -1 19 -3 4 -6 -2 -5 -13z"/>
<path d="M2481 1914 c0 -11 3 -14 6 -6 3 7 2 16 -1 19 -3 4 -6 -2 -5 -13z"/>
<path d="M3721 1914 c0 -11 3 -14 6 -6 3 7 2 16 -1 19 -3 4 -6 -2 -5 -13z"/>
<path d="M3261 1888 c-1 -16 -14 -18 -121 -18 -66 0 -120 -3 -120 -7 0 -11
233 -4 244 7 4 4 6 14 3 22 -4 9 -6 7 -6 -4z"/>
<path d="M3681 1888 c-1 -14 -10 -18 -46 -18 -25 0 -45 -4 -45 -9 0 -11 81 -2
94 9 4 5 6 14 3 22 -4 9 -6 7 -6 -4z"/>
<path d="M3300 1861 c0 -17 -6 -31 -16 -35 -9 -3 -63 -6 -120 -6 -68 0 -103
-4 -99 -10 8 -13 211 -13 236 0 13 8 19 21 19 45 0 19 -4 35 -10 35 -5 0 -10
-13 -10 -29z"/>
<path d="M3731 1874 c0 -11 3 -14 6 -6 3 7 2 16 -1 19 -3 4 -6 -2 -5 -13z"/>
<path d="M2443 1873 c-24 -2 -43 -8 -43 -13 0 -10 81 -1 95 11 6 6 6 8 0 7 -6
-1 -29 -3 -52 -5z"/>
<path d="M2541 1859 c-1 -30 -17 -39 -67 -39 -19 0 -34 -4 -34 -10 0 -12 106
-14 114 -2 2 4 1 23 -4 42 -7 30 -8 32 -9 9z"/>
<path d="M2676 1871 c6 -7 31 -14 55 -17 l44 -3 -43 9 c-23 5 -48 12 -55 16
-9 5 -9 4 -1 -5z"/>
<path d="M3731 1836 c-8 -10 -29 -16 -52 -16 -22 0 -39 -4 -39 -10 0 -17 100
-12 106 5 10 25 0 39 -15 21z"/>
<path d="M2872 1725 c0 -16 2 -22 5 -12 2 9 2 23 0 30 -3 6 -5 -1 -5 -18z"/>
<path d="M2228 1560 c-2 -94 0 -170 5 -170 4 0 7 77 7 170 0 94 -2 170 -5 170
-2 0 -5 -77 -7 -170z"/>
<path d="M2901 1702 c-1 -28 -57 -258 -71 -289 -5 -13 -6 -23 -1 -23 15 0 88
297 78 321 -3 8 -6 4 -6 -9z"/>
<path d="M2662 1680 c0 -14 2 -19 5 -12 2 6 2 18 0 25 -3 6 -5 1 -5 -13z"/>
<path d="M2363 1640 c0 -25 2 -35 4 -22 2 12 2 32 0 45 -2 12 -4 2 -4 -23z"/>
<path d="M2460 1566 c0 -99 -3 -117 -21 -142 l-21 -29 26 28 c25 27 26 33 26
143 0 63 -2 114 -5 114 -3 0 -5 -51 -5 -114z"/>
<path d="M2663 1535 c0 -27 2 -38 4 -22 2 15 2 37 0 50 -2 12 -4 0 -4 -28z"/>
<path d="M2691 1524 c0 -11 3 -14 6 -6 3 7 2 16 -1 19 -3 4 -6 -2 -5 -13z"/>
<path d="M2685 1473 c-3 -15 -16 -39 -28 -52 l-22 -24 22 12 c20 10 51 77 40
87 -2 3 -8 -8 -12 -23z"/>
<path d="M2409 1433 c-13 -16 -12 -17 4 -4 9 7 17 15 17 17 0 8 -8 3 -21 -13z"/>
</g>
</svg>
